# MagicaVoxel @ Ephtracy

# group
o 

# material
mtllib Door.mtl
usemtl palette

# normals
vn -1 0 0
vn 1 0 0
vn 0 0 1
vn 0 0 -1
vn 0 -1 0
vn 0 1 0

# texcoords
vt 0.720703 0.5
vt 0.724609 0.5
vt 0.931641 0.5

# verts
v -1.2 0 0.5
v -1.2 0 0.3
v -1.2 0.3 0.5
v -1.2 0.3 0.3
v -1.1 0 0.6
v -1.1 0 0.5
v -1.1 0 0.3
v -1.1 0 0.2
v -1.1 0.2 0.3
v -1.1 0.2 0.2
v -1.1 0.3 0.5
v -1.1 0.3 0.4
v -1.1 2.6 0.6
v -1.1 2.6 0.4
v -1 2.6 0.6
v -1 2.6 0.4
v -1 2.8 0.6
v -1 2.8 0.4
v -0.9 2.8 0.6
v -0.9 2.8 0.4
v -0.9 2.9 0.6
v -0.9 2.9 0.4
v -0.8 2.9 0.6
v -0.8 2.9 0.4
v -0.8 3.1 0.6
v -0.8 3.1 0.4
v -0.7 3.1 0.6
v -0.7 3.1 0.4
v -0.7 3.2 0.6
v -0.7 3.2 0.4
v -0.6 3.2 0.6
v -0.6 3.2 0.4
v -0.6 3.3 0.6
v -0.6 3.3 0.4
v 0.4 3 0.5
v 0.4 3 0.4
v 0.4 3.1 0.5
v 0.4 3.1 0.4
v 0.5 2.9 0.5
v 0.5 2.9 0.4
v 0.5 3 0.5
v 0.5 3 0.4
v 0.6 2.8 0.5
v 0.6 2.8 0.4
v 0.6 2.9 0.5
v 0.6 2.9 0.4
v 0.7 2.7 0.5
v 0.7 2.7 0.4
v 0.7 2.8 0.5
v 0.7 2.8 0.4
v 0.8 0 0.5
v 0.8 0 0.3
v 0.8 0.3 0.5
v 0.8 0.3 0.3
v 0.8 2.5 0.5
v 0.8 2.5 0.4
v 0.8 2.7 0.5
v 0.8 2.7 0.4
v 0.9 0 0.3
v 0.9 0 0.2
v 0.9 0.2 0.3
v 0.9 0.2 0.2
v 0.9 0.3 0.5
v 0.9 0.3 0.4
v 0.9 2.5 0.5
v 0.9 2.5 0.4
v -0.9 0 0.3
v -0.9 0 0.2
v -0.9 0.2 0.3
v -0.9 0.2 0.2
v -0.9 0.3 0.5
v -0.9 0.3 0.4
v -0.9 2.5 0.5
v -0.9 2.5 0.4
v -0.8 0 0.5
v -0.8 0 0.3
v -0.8 0.3 0.5
v -0.8 0.3 0.3
v -0.8 2.5 0.5
v -0.8 2.5 0.4
v -0.8 2.7 0.5
v -0.8 2.7 0.4
v -0.7 2.7 0.5
v -0.7 2.7 0.4
v -0.7 2.8 0.5
v -0.7 2.8 0.4
v -0.6 2.8 0.5
v -0.6 2.8 0.4
v -0.6 2.9 0.5
v -0.6 2.9 0.4
v -0.5 2.9 0.5
v -0.5 2.9 0.4
v -0.5 3 0.5
v -0.5 3 0.4
v -0.4 3 0.5
v -0.4 3 0.4
v -0.4 3.1 0.5
v -0.4 3.1 0.4
v 0.6 3.2 0.6
v 0.6 3.2 0.4
v 0.6 3.3 0.6
v 0.6 3.3 0.4
v 0.7 3.1 0.6
v 0.7 3.1 0.4
v 0.7 3.2 0.6
v 0.7 3.2 0.4
v 0.8 2.9 0.6
v 0.8 2.9 0.4
v 0.8 3.1 0.6
v 0.8 3.1 0.4
v 0.9 2.8 0.6
v 0.9 2.8 0.4
v 0.9 2.9 0.6
v 0.9 2.9 0.4
v 1 2.6 0.6
v 1 2.6 0.4
v 1 2.8 0.6
v 1 2.8 0.4
v 1.1 0 0.6
v 1.1 0 0.5
v 1.1 0 0.3
v 1.1 0 0.2
v 1.1 0.2 0.3
v 1.1 0.2 0.2
v 1.1 0.3 0.5
v 1.1 0.3 0.4
v 1.1 2.6 0.6
v 1.1 2.6 0.4
v 1.2 0 0.5
v 1.2 0 0.3
v 1.2 0.3 0.5
v 1.2 0.3 0.3
v -1.1 0 0.6
v -1.1 2.6 0.6
v -1 2.6 0.6
v -1 2.8 0.6
v -0.9 0 0.6
v -0.9 2.5 0.6
v -0.9 2.8 0.6
v -0.9 2.9 0.6
v -0.8 2.5 0.6
v -0.8 2.7 0.6
v -0.8 2.9 0.6
v -0.8 3.1 0.6
v -0.7 1.3 0.6
v -0.7 2 0.6
v -0.7 2.7 0.6
v -0.7 2.8 0.6
v -0.7 3.1 0.6
v -0.7 3.2 0.6
v -0.6 1.2 0.6
v -0.6 1.3 0.6
v -0.6 2 0.6
v -0.6 2.5 0.6
v -0.6 2.7 0.6
v -0.6 2.8 0.6
v -0.6 2.9 0.6
v -0.6 3.2 0.6
v -0.6 3.3 0.6
v -0.5 0 0.6
v -0.5 1.2 0.6
v -0.5 2.4 0.6
v -0.5 2.5 0.6
v -0.5 2.7 0.6
v -0.5 2.9 0.6
v -0.5 3 0.6
v -0.4 0 0.6
v -0.4 1.3 0.6
v -0.4 2.4 0.6
v -0.4 2.5 0.6
v -0.4 2.6 0.6
v -0.4 3 0.6
v -0.4 3.1 0.6
v -0.3 1.3 0.6
v -0.3 2.6 0.6
v -0.3 2.7 0.6
v -0.2 2.6 0.6
v -0.2 2.7 0.6
v -0.2 2.8 0.6
v -0.0999999 0 0.6
v -0.0999999 1.2 0.6
v 0.1 0 0.6
v 0.1 1.2 0.6
v 0.2 2.6 0.6
v 0.2 2.7 0.6
v 0.2 2.8 0.6
v 0.3 1.3 0.6
v 0.3 2.6 0.6
v 0.3 2.7 0.6
v 0.4 0 0.6
v 0.4 1.3 0.6
v 0.4 2.4 0.6
v 0.4 2.5 0.6
v 0.4 2.6 0.6
v 0.4 3 0.6
v 0.4 3.1 0.6
v 0.5 0 0.6
v 0.5 1.2 0.6
v 0.5 2.4 0.6
v 0.5 2.5 0.6
v 0.5 2.7 0.6
v 0.5 2.9 0.6
v 0.5 3 0.6
v 0.6 1.2 0.6
v 0.6 1.3 0.6
v 0.6 2 0.6
v 0.6 2.5 0.6
v 0.6 2.7 0.6
v 0.6 2.8 0.6
v 0.6 2.9 0.6
v 0.6 3.2 0.6
v 0.6 3.3 0.6
v 0.7 1.3 0.6
v 0.7 2 0.6
v 0.7 2.7 0.6
v 0.7 2.8 0.6
v 0.7 3.1 0.6
v 0.7 3.2 0.6
v 0.8 2.5 0.6
v 0.8 2.7 0.6
v 0.8 2.9 0.6
v 0.8 3.1 0.6
v 0.9 0 0.6
v 0.9 2.5 0.6
v 0.9 2.8 0.6
v 0.9 2.9 0.6
v 1 2.6 0.6
v 1 2.8 0.6
v 1.1 0 0.6
v 1.1 2.6 0.6
v -1.2 0 0.5
v -1.2 0.3 0.5
v -1.1 0 0.5
v -1.1 0.3 0.5
v 1.1 0 0.5
v 1.1 0.3 0.5
v 1.2 0 0.5
v 1.2 0.3 0.5
v -0.9 0.3 0.5
v -0.9 2.5 0.5
v -0.8 0 0.5
v -0.8 0.3 0.5
v -0.8 2.5 0.5
v -0.8 2.7 0.5
v -0.7 1.3 0.5
v -0.7 2 0.5
v -0.7 2.7 0.5
v -0.7 2.8 0.5
v -0.6 1.2 0.5
v -0.6 1.3 0.5
v -0.6 2 0.5
v -0.6 2.5 0.5
v -0.6 2.7 0.5
v -0.6 2.8 0.5
v -0.6 2.9 0.5
v -0.5 0 0.5
v -0.5 1.2 0.5
v -0.5 2.4 0.5
v -0.5 2.5 0.5
v -0.5 2.7 0.5
v -0.5 2.9 0.5
v -0.5 3 0.5
v -0.4 0 0.5
v -0.4 1.3 0.5
v -0.4 2.4 0.5
v -0.4 2.5 0.5
v -0.4 2.6 0.5
v -0.4 3 0.5
v -0.4 3.1 0.5
v -0.3 1.3 0.5
v -0.3 2.6 0.5
v -0.3 2.7 0.5
v -0.2 2.6 0.5
v -0.2 2.7 0.5
v -0.2 2.8 0.5
v -0.0999999 0 0.5
v -0.0999999 1.2 0.5
v 0.1 0 0.5
v 0.1 1.2 0.5
v 0.2 2.6 0.5
v 0.2 2.7 0.5
v 0.2 2.8 0.5
v 0.3 1.3 0.5
v 0.3 2.6 0.5
v 0.3 2.7 0.5
v 0.4 0 0.5
v 0.4 1.3 0.5
v 0.4 2.4 0.5
v 0.4 2.5 0.5
v 0.4 2.6 0.5
v 0.4 3 0.5
v 0.4 3.1 0.5
v 0.5 0 0.5
v 0.5 1.2 0.5
v 0.5 2.4 0.5
v 0.5 2.5 0.5
v 0.5 2.7 0.5
v 0.5 2.9 0.5
v 0.5 3 0.5
v 0.6 1.2 0.5
v 0.6 1.3 0.5
v 0.6 2 0.5
v 0.6 2.5 0.5
v 0.6 2.7 0.5
v 0.6 2.8 0.5
v 0.6 2.9 0.5
v 0.7 1.3 0.5
v 0.7 2 0.5
v 0.7 2.7 0.5
v 0.7 2.8 0.5
v 0.8 0 0.5
v 0.8 0.3 0.5
v 0.8 2.5 0.5
v 0.8 2.7 0.5
v 0.9 0.3 0.5
v 0.9 2.5 0.5
v -1.1 0.3 0.4
v -1.1 2.6 0.4
v -1 2.6 0.4
v -1 2.8 0.4
v -0.9 0.3 0.4
v -0.9 2.5 0.4
v -0.9 2.8 0.4
v -0.9 2.9 0.4
v -0.8 2.5 0.4
v -0.8 2.7 0.4
v -0.8 2.9 0.4
v -0.8 3.1 0.4
v -0.7 2.7 0.4
v -0.7 2.8 0.4
v -0.7 3.1 0.4
v -0.7 3.2 0.4
v -0.6 2.8 0.4
v -0.6 2.9 0.4
v -0.6 3.2 0.4
v -0.6 3.3 0.4
v -0.5 2.9 0.4
v -0.5 3 0.4
v -0.4 3 0.4
v -0.4 3.1 0.4
v 0.4 3 0.4
v 0.4 3.1 0.4
v 0.5 2.9 0.4
v 0.5 3 0.4
v 0.6 2.8 0.4
v 0.6 2.9 0.4
v 0.6 3.2 0.4
v 0.6 3.3 0.4
v 0.7 2.7 0.4
v 0.7 2.8 0.4
v 0.7 3.1 0.4
v 0.7 3.2 0.4
v 0.8 2.5 0.4
v 0.8 2.7 0.4
v 0.8 2.9 0.4
v 0.8 3.1 0.4
v 0.9 0.3 0.4
v 0.9 2.5 0.4
v 0.9 2.8 0.4
v 0.9 2.9 0.4
v 1 2.6 0.4
v 1 2.8 0.4
v 1.1 0.3 0.4
v 1.1 2.6 0.4
v -1.2 0 0.3
v -1.2 0.3 0.3
v -1.1 0 0.3
v -1.1 0.2 0.3
v -0.9 0 0.3
v -0.9 0.2 0.3
v -0.8 0 0.3
v -0.8 0.3 0.3
v 0.8 0 0.3
v 0.8 0.3 0.3
v 0.9 0 0.3
v 0.9 0.2 0.3
v 1.1 0 0.3
v 1.1 0.2 0.3
v 1.2 0 0.3
v 1.2 0.3 0.3
v -1.1 0 0.2
v -1.1 0.2 0.2
v -0.9 0 0.2
v -0.9 0.2 0.2
v 0.9 0 0.2
v 0.9 0.2 0.2
v 1.1 0 0.2
v 1.1 0.2 0.2
v -1.1 0 0.6
v -0.9 0 0.6
v -0.5 0 0.6
v -0.4 0 0.6
v -0.0999999 0 0.6
v 0.1 0 0.6
v 0.4 0 0.6
v 0.5 0 0.6
v 0.9 0 0.6
v 1.1 0 0.6
v -1.2 0 0.5
v -1.1 0 0.5
v -0.9 0 0.5
v -0.8 0 0.5
v -0.5 0 0.5
v -0.4 0 0.5
v -0.0999999 0 0.5
v 0.1 0 0.5
v 0.4 0 0.5
v 0.5 0 0.5
v 0.8 0 0.5
v 0.9 0 0.5
v 1.1 0 0.5
v 1.2 0 0.5
v -1.2 0 0.3
v -1.1 0 0.3
v -0.9 0 0.3
v -0.8 0 0.3
v 0.8 0 0.3
v 0.9 0 0.3
v 1.1 0 0.3
v 1.2 0 0.3
v -1.1 0 0.2
v -0.9 0 0.2
v 0.9 0 0.2
v 1.1 0 0.2
v -0.9 2.5 0.5
v -0.8 2.5 0.5
v 0.8 2.5 0.5
v 0.9 2.5 0.5
v -0.9 2.5 0.4
v -0.8 2.5 0.4
v 0.8 2.5 0.4
v 0.9 2.5 0.4
v -0.8 2.7 0.5
v -0.7 2.7 0.5
v 0.7 2.7 0.5
v 0.8 2.7 0.5
v -0.8 2.7 0.4
v -0.7 2.7 0.4
v 0.7 2.7 0.4
v 0.8 2.7 0.4
v -0.7 2.8 0.5
v -0.6 2.8 0.5
v 0.6 2.8 0.5
v 0.7 2.8 0.5
v -0.7 2.8 0.4
v -0.6 2.8 0.4
v 0.6 2.8 0.4
v 0.7 2.8 0.4
v -0.6 2.9 0.5
v -0.5 2.9 0.5
v 0.5 2.9 0.5
v 0.6 2.9 0.5
v -0.6 2.9 0.4
v -0.5 2.9 0.4
v 0.5 2.9 0.4
v 0.6 2.9 0.4
v -0.5 3 0.5
v -0.4 3 0.5
v 0.4 3 0.5
v 0.5 3 0.5
v -0.5 3 0.4
v -0.4 3 0.4
v 0.4 3 0.4
v 0.5 3 0.4
v -0.4 3.1 0.5
v 0.4 3.1 0.5
v -0.4 3.1 0.4
v 0.4 3.1 0.4
v -1.1 0.2 0.3
v -0.9 0.2 0.3
v 0.9 0.2 0.3
v 1.1 0.2 0.3
v -1.1 0.2 0.2
v -0.9 0.2 0.2
v 0.9 0.2 0.2
v 1.1 0.2 0.2
v -1.2 0.3 0.5
v -1.1 0.3 0.5
v -0.9 0.3 0.5
v -0.8 0.3 0.5
v 0.8 0.3 0.5
v 0.9 0.3 0.5
v 1.1 0.3 0.5
v 1.2 0.3 0.5
v -1.1 0.3 0.4
v -0.9 0.3 0.4
v 0.9 0.3 0.4
v 1.1 0.3 0.4
v -1.2 0.3 0.3
v -0.8 0.3 0.3
v 0.8 0.3 0.3
v 1.2 0.3 0.3
v -1.1 2.6 0.6
v -1 2.6 0.6
v 1 2.6 0.6
v 1.1 2.6 0.6
v -1.1 2.6 0.4
v -1 2.6 0.4
v 1 2.6 0.4
v 1.1 2.6 0.4
v -1 2.8 0.6
v -0.9 2.8 0.6
v 0.9 2.8 0.6
v 1 2.8 0.6
v -1 2.8 0.4
v -0.9 2.8 0.4
v 0.9 2.8 0.4
v 1 2.8 0.4
v -0.9 2.9 0.6
v -0.8 2.9 0.6
v 0.8 2.9 0.6
v 0.9 2.9 0.6
v -0.9 2.9 0.4
v -0.8 2.9 0.4
v 0.8 2.9 0.4
v 0.9 2.9 0.4
v -0.8 3.1 0.6
v -0.7 3.1 0.6
v 0.7 3.1 0.6
v 0.8 3.1 0.6
v -0.8 3.1 0.4
v -0.7 3.1 0.4
v 0.7 3.1 0.4
v 0.8 3.1 0.4
v -0.7 3.2 0.6
v -0.6 3.2 0.6
v 0.6 3.2 0.6
v 0.7 3.2 0.6
v -0.7 3.2 0.4
v -0.6 3.2 0.4
v 0.6 3.2 0.4
v 0.7 3.2 0.4
v -0.6 3.3 0.6
v 0.6 3.3 0.6
v -0.6 3.3 0.4
v 0.6 3.3 0.4

# faces
f 3/3/1 2/3/1 1/3/1
f 4/3/1 2/3/1 3/3/1
f 9/3/1 8/3/1 7/3/1
f 10/3/1 8/3/1 9/3/1
f 11/1/1 6/1/1 5/1/1
f 13/1/1 11/1/1 5/1/1
f 13/1/1 12/1/1 11/1/1
f 14/1/1 12/1/1 13/1/1
f 17/1/1 16/1/1 15/1/1
f 18/1/1 16/1/1 17/1/1
f 21/1/1 20/1/1 19/1/1
f 22/1/1 20/1/1 21/1/1
f 25/1/1 24/1/1 23/1/1
f 26/1/1 24/1/1 25/1/1
f 29/1/1 28/1/1 27/1/1
f 30/1/1 28/1/1 29/1/1
f 33/1/1 32/1/1 31/1/1
f 34/1/1 32/1/1 33/1/1
f 37/1/1 36/1/1 35/1/1
f 38/1/1 36/1/1 37/1/1
f 41/1/1 40/1/1 39/1/1
f 42/1/1 40/1/1 41/1/1
f 45/1/1 44/1/1 43/1/1
f 46/1/1 44/1/1 45/1/1
f 49/1/1 48/1/1 47/1/1
f 50/1/1 48/1/1 49/1/1
f 53/3/1 52/3/1 51/3/1
f 54/3/1 52/3/1 53/3/1
f 57/1/1 56/1/1 55/1/1
f 58/1/1 56/1/1 57/1/1
f 61/3/1 60/3/1 59/3/1
f 62/3/1 60/3/1 61/3/1
f 65/1/1 64/1/1 63/1/1
f 66/1/1 64/1/1 65/1/1
f 67/3/2 68/3/2 69/3/2
f 69/3/2 68/3/2 70/3/2
f 71/1/2 72/1/2 73/1/2
f 73/1/2 72/1/2 74/1/2
f 75/3/2 76/3/2 77/3/2
f 77/3/2 76/3/2 78/3/2
f 79/1/2 80/1/2 81/1/2
f 81/1/2 80/1/2 82/1/2
f 83/1/2 84/1/2 85/1/2
f 85/1/2 84/1/2 86/1/2
f 87/1/2 88/1/2 89/1/2
f 89/1/2 88/1/2 90/1/2
f 91/1/2 92/1/2 93/1/2
f 93/1/2 92/1/2 94/1/2
f 95/1/2 96/1/2 97/1/2
f 97/1/2 96/1/2 98/1/2
f 99/1/2 100/1/2 101/1/2
f 101/1/2 100/1/2 102/1/2
f 103/1/2 104/1/2 105/1/2
f 105/1/2 104/1/2 106/1/2
f 107/1/2 108/1/2 109/1/2
f 109/1/2 108/1/2 110/1/2
f 111/1/2 112/1/2 113/1/2
f 113/1/2 112/1/2 114/1/2
f 115/1/2 116/1/2 117/1/2
f 117/1/2 116/1/2 118/1/2
f 121/3/2 122/3/2 123/3/2
f 123/3/2 122/3/2 124/3/2
f 119/1/2 120/1/2 125/1/2
f 119/1/2 125/1/2 127/1/2
f 125/1/2 126/1/2 127/1/2
f 127/1/2 126/1/2 128/1/2
f 129/3/2 130/3/2 131/3/2
f 131/3/2 130/3/2 132/3/2
f 135/1/3 134/1/3 133/1/3
f 137/1/3 135/1/3 133/1/3
f 137/1/3 136/1/3 135/1/3
f 138/1/3 136/1/3 137/1/3
f 139/1/3 136/1/3 138/1/3
f 141/2/3 138/2/3 137/2/3
f 141/1/3 140/1/3 139/1/3
f 141/1/3 139/1/3 138/1/3
f 142/1/3 140/1/3 141/1/3
f 143/1/3 140/1/3 142/1/3
f 145/2/3 141/2/3 137/2/3
f 145/2/3 142/2/3 141/2/3
f 146/2/3 142/2/3 145/2/3
f 147/1/3 144/1/3 143/1/3
f 147/2/3 142/2/3 146/2/3
f 147/1/3 143/1/3 142/1/3
f 148/1/3 144/1/3 147/1/3
f 149/1/3 144/1/3 148/1/3
f 151/2/3 145/2/3 137/2/3
f 152/1/3 146/1/3 145/1/3
f 152/2/3 145/2/3 151/2/3
f 153/2/3 147/2/3 146/2/3
f 153/1/3 146/1/3 152/1/3
f 153/2/3 148/2/3 147/2/3
f 154/2/3 148/2/3 153/2/3
f 155/2/3 148/2/3 154/2/3
f 156/1/3 150/1/3 149/1/3
f 156/2/3 148/2/3 155/2/3
f 156/1/3 149/1/3 148/1/3
f 157/1/3 150/1/3 156/1/3
f 158/1/3 150/1/3 157/1/3
f 160/2/3 151/2/3 137/2/3
f 161/1/3 152/1/3 151/1/3
f 161/2/3 151/2/3 160/2/3
f 162/2/3 154/2/3 153/2/3
f 162/2/3 153/2/3 152/2/3
f 163/1/3 155/1/3 154/1/3
f 163/2/3 154/2/3 162/2/3
f 164/2/3 156/2/3 155/2/3
f 164/1/3 155/1/3 163/1/3
f 164/2/3 157/2/3 156/2/3
f 165/1/3 159/1/3 158/1/3
f 165/2/3 157/2/3 164/2/3
f 165/1/3 158/1/3 157/1/3
f 166/1/3 159/1/3 165/1/3
f 167/1/3 161/1/3 160/1/3
f 168/2/3 162/2/3 152/2/3
f 168/1/3 161/1/3 167/1/3
f 168/1/3 152/1/3 161/1/3
f 169/1/3 163/1/3 162/1/3
f 169/2/3 162/2/3 168/2/3
f 170/2/3 164/2/3 163/2/3
f 170/1/3 163/1/3 169/1/3
f 170/2/3 166/2/3 165/2/3
f 170/2/3 165/2/3 164/2/3
f 171/2/3 166/2/3 170/2/3
f 172/1/3 159/1/3 166/1/3
f 172/2/3 166/2/3 171/2/3
f 173/1/3 159/1/3 172/1/3
f 174/1/3 169/1/3 168/1/3
f 174/2/3 168/2/3 167/2/3
f 174/1/3 171/1/3 170/1/3
f 174/1/3 170/1/3 169/1/3
f 175/2/3 173/2/3 172/2/3
f 175/1/3 171/1/3 174/1/3
f 175/2/3 172/2/3 171/2/3
f 176/2/3 173/2/3 175/2/3
f 177/2/3 175/2/3 174/2/3
f 177/1/3 176/1/3 175/1/3
f 178/2/3 173/2/3 176/2/3
f 178/1/3 176/1/3 177/1/3
f 179/2/3 173/2/3 178/2/3
f 180/2/3 174/2/3 167/2/3
f 180/2/3 177/2/3 174/2/3
f 180/2/3 178/2/3 177/2/3
f 181/2/3 178/2/3 180/2/3
f 182/1/3 181/1/3 180/1/3
f 183/2/3 178/2/3 181/2/3
f 183/1/3 181/1/3 182/1/3
f 184/2/3 183/2/3 182/2/3
f 184/2/3 178/2/3 183/2/3
f 185/1/3 179/1/3 178/1/3
f 185/2/3 178/2/3 184/2/3
f 186/2/3 173/2/3 179/2/3
f 186/1/3 179/1/3 185/1/3
f 187/2/3 184/2/3 182/2/3
f 188/1/3 185/1/3 184/1/3
f 188/2/3 184/2/3 187/2/3
f 189/2/3 186/2/3 185/2/3
f 189/1/3 185/1/3 188/1/3
f 190/2/3 187/2/3 182/2/3
f 191/1/3 188/1/3 187/1/3
f 191/2/3 187/2/3 190/2/3
f 192/1/3 188/1/3 191/1/3
f 193/1/3 188/1/3 192/1/3
f 194/2/3 189/2/3 188/2/3
f 194/1/3 188/1/3 193/1/3
f 195/2/3 186/2/3 189/2/3
f 195/2/3 189/2/3 194/2/3
f 195/2/3 173/2/3 186/2/3
f 196/1/3 159/1/3 173/1/3
f 196/2/3 173/2/3 195/2/3
f 197/1/3 191/1/3 190/1/3
f 198/1/3 191/1/3 197/1/3
f 199/2/3 192/2/3 191/2/3
f 199/1/3 193/1/3 192/1/3
f 200/2/3 195/2/3 194/2/3
f 200/1/3 193/1/3 199/1/3
f 200/2/3 194/2/3 193/2/3
f 201/2/3 195/2/3 200/2/3
f 202/2/3 195/2/3 201/2/3
f 203/1/3 196/1/3 195/1/3
f 203/2/3 195/2/3 202/2/3
f 204/1/3 191/1/3 198/1/3
f 204/2/3 198/2/3 197/2/3
f 205/2/3 199/2/3 191/2/3
f 205/1/3 191/1/3 204/1/3
f 205/2/3 200/2/3 199/2/3
f 206/2/3 200/2/3 205/2/3
f 207/1/3 201/1/3 200/1/3
f 207/2/3 200/2/3 206/2/3
f 208/2/3 202/2/3 201/2/3
f 208/1/3 201/1/3 207/1/3
f 209/2/3 202/2/3 208/2/3
f 210/1/3 203/1/3 202/1/3
f 210/2/3 202/2/3 209/2/3
f 211/1/3 196/1/3 203/1/3
f 211/1/3 203/1/3 210/1/3
f 211/1/3 159/1/3 196/1/3
f 212/1/3 159/1/3 211/1/3
f 213/1/3 206/1/3 205/1/3
f 213/2/3 205/2/3 204/2/3
f 214/2/3 209/2/3 208/2/3
f 214/1/3 206/1/3 213/1/3
f 214/2/3 208/2/3 207/2/3
f 214/2/3 207/2/3 206/2/3
f 215/2/3 209/2/3 214/2/3
f 216/1/3 210/1/3 209/1/3
f 216/2/3 209/2/3 215/2/3
f 216/1/3 211/1/3 210/1/3
f 217/1/3 211/1/3 216/1/3
f 218/1/3 211/1/3 217/1/3
f 219/2/3 215/2/3 214/2/3
f 219/2/3 214/2/3 213/2/3
f 220/1/3 217/1/3 216/1/3
f 220/2/3 215/2/3 219/2/3
f 220/1/3 216/1/3 215/1/3
f 221/1/3 217/1/3 220/1/3
f 222/1/3 217/1/3 221/1/3
f 223/2/3 204/2/3 197/2/3
f 223/2/3 213/2/3 204/2/3
f 223/2/3 219/2/3 213/2/3
f 224/1/3 221/1/3 220/1/3
f 224/2/3 219/2/3 223/2/3
f 224/1/3 220/1/3 219/1/3
f 225/1/3 221/1/3 224/1/3
f 226/1/3 221/1/3 225/1/3
f 227/1/3 224/1/3 223/1/3
f 227/1/3 225/1/3 224/1/3
f 228/1/3 225/1/3 227/1/3
f 229/1/3 227/1/3 223/1/3
f 230/1/3 227/1/3 229/1/3
f 233/3/3 232/3/3 231/3/3
f 234/3/3 232/3/3 233/3/3
f 237/3/3 236/3/3 235/3/3
f 238/3/3 236/3/3 237/3/3
f 239/2/4 240/2/4 242/2/4
f 242/2/4 240/2/4 243/2/4
f 241/2/4 242/2/4 245/2/4
f 243/2/4 244/2/4 245/2/4
f 242/2/4 243/2/4 245/2/4
f 245/2/4 244/2/4 246/2/4
f 246/2/4 244/2/4 247/2/4
f 241/2/4 245/2/4 249/2/4
f 245/1/4 246/1/4 250/1/4
f 249/2/4 245/2/4 250/2/4
f 247/2/4 248/2/4 251/2/4
f 250/1/4 246/1/4 251/1/4
f 246/2/4 247/2/4 251/2/4
f 251/2/4 248/2/4 252/2/4
f 252/2/4 248/2/4 253/2/4
f 253/2/4 248/2/4 254/2/4
f 241/2/4 249/2/4 256/2/4
f 249/1/4 250/1/4 257/1/4
f 256/2/4 249/2/4 257/2/4
f 250/2/4 251/2/4 258/2/4
f 251/2/4 252/2/4 258/2/4
f 252/1/4 253/1/4 259/1/4
f 258/2/4 252/2/4 259/2/4
f 254/2/4 255/2/4 260/2/4
f 259/1/4 253/1/4 260/1/4
f 253/2/4 254/2/4 260/2/4
f 260/2/4 255/2/4 261/2/4
f 256/1/4 257/1/4 263/1/4
f 257/1/4 250/1/4 264/1/4
f 263/1/4 257/1/4 264/1/4
f 250/2/4 258/2/4 264/2/4
f 258/1/4 259/1/4 265/1/4
f 264/2/4 258/2/4 265/2/4
f 261/2/4 262/2/4 266/2/4
f 265/1/4 259/1/4 266/1/4
f 260/2/4 261/2/4 266/2/4
f 259/2/4 260/2/4 266/2/4
f 266/2/4 262/2/4 267/2/4
f 267/2/4 262/2/4 268/2/4
f 263/2/4 264/2/4 270/2/4
f 264/1/4 265/1/4 270/1/4
f 265/1/4 266/1/4 270/1/4
f 266/1/4 267/1/4 270/1/4
f 268/2/4 269/2/4 271/2/4
f 270/1/4 267/1/4 271/1/4
f 267/2/4 268/2/4 271/2/4
f 271/2/4 269/2/4 272/2/4
f 270/2/4 271/2/4 273/2/4
f 271/1/4 272/1/4 273/1/4
f 272/2/4 269/2/4 274/2/4
f 273/1/4 272/1/4 274/1/4
f 274/2/4 269/2/4 275/2/4
f 263/2/4 270/2/4 276/2/4
f 270/2/4 273/2/4 276/2/4
f 273/2/4 274/2/4 276/2/4
f 276/2/4 274/2/4 277/2/4
f 276/1/4 277/1/4 278/1/4
f 277/2/4 274/2/4 279/2/4
f 278/1/4 277/1/4 279/1/4
f 278/2/4 279/2/4 280/2/4
f 279/2/4 274/2/4 280/2/4
f 274/1/4 275/1/4 281/1/4
f 280/2/4 274/2/4 281/2/4
f 275/2/4 269/2/4 282/2/4
f 281/1/4 275/1/4 282/1/4
f 278/2/4 280/2/4 283/2/4
f 280/1/4 281/1/4 284/1/4
f 283/2/4 280/2/4 284/2/4
f 281/2/4 282/2/4 285/2/4
f 284/1/4 281/1/4 285/1/4
f 278/2/4 283/2/4 286/2/4
f 283/1/4 284/1/4 287/1/4
f 286/2/4 283/2/4 287/2/4
f 287/1/4 284/1/4 288/1/4
f 288/1/4 284/1/4 289/1/4
f 284/2/4 285/2/4 290/2/4
f 289/1/4 284/1/4 290/1/4
f 285/2/4 282/2/4 291/2/4
f 290/2/4 285/2/4 291/2/4
f 282/2/4 269/2/4 291/2/4
f 291/2/4 269/2/4 292/2/4
f 286/1/4 287/1/4 293/1/4
f 293/1/4 287/1/4 294/1/4
f 287/2/4 288/2/4 295/2/4
f 288/1/4 289/1/4 295/1/4
f 289/2/4 290/2/4 296/2/4
f 295/1/4 289/1/4 296/1/4
f 290/2/4 291/2/4 296/2/4
f 296/2/4 291/2/4 297/2/4
f 297/2/4 291/2/4 298/2/4
f 298/2/4 291/2/4 299/2/4
f 294/1/4 287/1/4 300/1/4
f 293/2/4 294/2/4 300/2/4
f 287/2/4 295/2/4 301/2/4
f 300/1/4 287/1/4 301/1/4
f 295/2/4 296/2/4 301/2/4
f 301/2/4 296/2/4 302/2/4
f 296/1/4 297/1/4 303/1/4
f 302/2/4 296/2/4 303/2/4
f 297/2/4 298/2/4 304/2/4
f 303/1/4 297/1/4 304/1/4
f 304/2/4 298/2/4 305/2/4
f 305/2/4 298/2/4 306/2/4
f 301/1/4 302/1/4 307/1/4
f 300/2/4 301/2/4 307/2/4
f 302/2/4 303/2/4 308/2/4
f 307/1/4 302/1/4 308/1/4
f 304/2/4 305/2/4 308/2/4
f 303/2/4 304/2/4 308/2/4
f 308/2/4 305/2/4 309/2/4
f 309/2/4 305/2/4 310/2/4
f 293/2/4 300/2/4 311/2/4
f 300/2/4 307/2/4 311/2/4
f 308/2/4 309/2/4 311/2/4
f 307/2/4 308/2/4 311/2/4
f 311/2/4 309/2/4 312/2/4
f 312/2/4 309/2/4 313/2/4
f 313/2/4 309/2/4 314/2/4
f 312/2/4 313/2/4 315/2/4
f 315/2/4 313/2/4 316/2/4
f 317/1/4 318/1/4 319/1/4
f 317/1/4 319/1/4 321/1/4
f 319/1/4 320/1/4 321/1/4
f 321/1/4 320/1/4 322/1/4
f 322/1/4 320/1/4 323/1/4
f 323/1/4 324/1/4 325/1/4
f 322/1/4 323/1/4 325/1/4
f 325/1/4 324/1/4 326/1/4
f 326/1/4 324/1/4 327/1/4
f 327/1/4 328/1/4 329/1/4
f 326/1/4 327/1/4 329/1/4
f 329/1/4 328/1/4 330/1/4
f 330/1/4 328/1/4 331/1/4
f 331/1/4 332/1/4 333/1/4
f 330/1/4 331/1/4 333/1/4
f 333/1/4 332/1/4 334/1/4
f 334/1/4 332/1/4 335/1/4
f 335/1/4 336/1/4 337/1/4
f 334/1/4 335/1/4 337/1/4
f 337/1/4 336/1/4 338/1/4
f 338/1/4 336/1/4 339/1/4
f 339/1/4 336/1/4 340/1/4
f 340/1/4 336/1/4 342/1/4
f 341/1/4 342/1/4 344/1/4
f 343/1/4 344/1/4 346/1/4
f 342/1/4 336/1/4 347/1/4
f 344/1/4 342/1/4 347/1/4
f 346/1/4 344/1/4 347/1/4
f 347/1/4 336/1/4 348/1/4
f 345/1/4 346/1/4 350/1/4
f 346/1/4 347/1/4 350/1/4
f 350/1/4 347/1/4 351/1/4
f 351/1/4 347/1/4 352/1/4
f 349/1/4 350/1/4 354/1/4
f 350/1/4 351/1/4 354/1/4
f 354/1/4 351/1/4 355/1/4
f 355/1/4 351/1/4 356/1/4
f 353/1/4 354/1/4 358/1/4
f 354/1/4 355/1/4 358/1/4
f 358/1/4 355/1/4 359/1/4
f 359/1/4 355/1/4 360/1/4
f 357/1/4 358/1/4 361/1/4
f 358/1/4 359/1/4 361/1/4
f 361/1/4 359/1/4 362/1/4
f 357/1/4 361/1/4 363/1/4
f 363/1/4 361/1/4 364/1/4
f 365/3/4 366/3/4 367/3/4
f 367/3/4 366/3/4 368/3/4
f 368/3/4 366/3/4 370/3/4
f 369/3/4 370/3/4 371/3/4
f 370/3/4 366/3/4 372/3/4
f 371/3/4 370/3/4 372/3/4
f 373/3/4 374/3/4 375/3/4
f 375/3/4 374/3/4 376/3/4
f 376/3/4 374/3/4 378/3/4
f 377/3/4 378/3/4 379/3/4
f 378/3/4 374/3/4 380/3/4
f 379/3/4 378/3/4 380/3/4
f 381/3/4 382/3/4 383/3/4
f 383/3/4 382/3/4 384/3/4
f 385/3/4 386/3/4 387/3/4
f 387/3/4 386/3/4 388/3/4
f 400/1/5 390/1/5 389/1/5
f 401/2/5 391/2/5 390/2/5
f 401/1/5 390/1/5 400/1/5
f 402/2/5 391/2/5 401/2/5
f 403/1/5 392/1/5 391/1/5
f 403/2/5 391/2/5 402/2/5
f 404/2/5 393/2/5 392/2/5
f 404/1/5 392/1/5 403/1/5
f 405/1/5 394/1/5 393/1/5
f 405/2/5 393/2/5 404/2/5
f 406/2/5 395/2/5 394/2/5
f 406/1/5 394/1/5 405/1/5
f 407/1/5 396/1/5 395/1/5
f 407/2/5 395/2/5 406/2/5
f 408/2/5 397/2/5 396/2/5
f 408/1/5 396/1/5 407/1/5
f 409/2/5 397/2/5 408/2/5
f 410/1/5 398/1/5 397/1/5
f 410/2/5 397/2/5 409/2/5
f 411/1/5 398/1/5 410/1/5
f 413/3/5 400/3/5 399/3/5
f 413/3/5 402/3/5 401/3/5
f 413/3/5 401/3/5 400/3/5
f 414/3/5 402/3/5 413/3/5
f 415/3/5 402/3/5 414/3/5
f 416/3/5 402/3/5 415/3/5
f 417/3/5 412/3/5 411/3/5
f 417/3/5 411/3/5 410/3/5
f 417/3/5 410/3/5 409/3/5
f 418/3/5 412/3/5 417/3/5
f 419/3/5 412/3/5 418/3/5
f 420/3/5 412/3/5 419/3/5
f 421/3/5 415/3/5 414/3/5
f 422/3/5 415/3/5 421/3/5
f 423/3/5 419/3/5 418/3/5
f 424/3/5 419/3/5 423/3/5
f 429/1/5 426/1/5 425/1/5
f 430/1/5 426/1/5 429/1/5
f 431/1/5 428/1/5 427/1/5
f 432/1/5 428/1/5 431/1/5
f 437/1/5 434/1/5 433/1/5
f 438/1/5 434/1/5 437/1/5
f 439/1/5 436/1/5 435/1/5
f 440/1/5 436/1/5 439/1/5
f 445/1/5 442/1/5 441/1/5
f 446/1/5 442/1/5 445/1/5
f 447/1/5 444/1/5 443/1/5
f 448/1/5 444/1/5 447/1/5
f 453/1/5 450/1/5 449/1/5
f 454/1/5 450/1/5 453/1/5
f 455/1/5 452/1/5 451/1/5
f 456/1/5 452/1/5 455/1/5
f 461/1/5 458/1/5 457/1/5
f 462/1/5 458/1/5 461/1/5
f 463/1/5 460/1/5 459/1/5
f 464/1/5 460/1/5 463/1/5
f 467/1/5 466/1/5 465/1/5
f 468/1/5 466/1/5 467/1/5
f 469/3/6 470/3/6 473/3/6
f 473/3/6 470/3/6 474/3/6
f 471/3/6 472/3/6 475/3/6
f 475/3/6 472/3/6 476/3/6
f 477/3/6 478/3/6 485/3/6
f 479/3/6 480/3/6 486/3/6
f 481/3/6 482/3/6 487/3/6
f 483/3/6 484/3/6 488/3/6
f 477/3/6 485/3/6 489/3/6
f 485/3/6 486/3/6 489/3/6
f 486/3/6 480/3/6 490/3/6
f 489/3/6 486/3/6 490/3/6
f 481/3/6 487/3/6 491/3/6
f 487/3/6 488/3/6 491/3/6
f 488/3/6 484/3/6 492/3/6
f 491/3/6 488/3/6 492/3/6
f 493/1/6 494/1/6 497/1/6
f 497/1/6 494/1/6 498/1/6
f 495/1/6 496/1/6 499/1/6
f 499/1/6 496/1/6 500/1/6
f 501/1/6 502/1/6 505/1/6
f 505/1/6 502/1/6 506/1/6
f 503/1/6 504/1/6 507/1/6
f 507/1/6 504/1/6 508/1/6
f 509/1/6 510/1/6 513/1/6
f 513/1/6 510/1/6 514/1/6
f 511/1/6 512/1/6 515/1/6
f 515/1/6 512/1/6 516/1/6
f 517/1/6 518/1/6 521/1/6
f 521/1/6 518/1/6 522/1/6
f 519/1/6 520/1/6 523/1/6
f 523/1/6 520/1/6 524/1/6
f 525/1/6 526/1/6 529/1/6
f 529/1/6 526/1/6 530/1/6
f 527/1/6 528/1/6 531/1/6
f 531/1/6 528/1/6 532/1/6
f 533/1/6 534/1/6 535/1/6
f 535/1/6 534/1/6 536/1/6
