# MagicaVoxel @ Ephtracy

# group
o 

# material
mtllib Fireball.mtl
usemtl palette

# normals
vn -1 0 0
vn 1 0 0
vn 0 0 1
vn 0 0 -1
vn 0 -1 0
vn 0 1 0

# texcoords
vt 0.876953 0.5
vt 0.880859 0.5

# verts
v -0.2 0.1 0.0999999
v -0.2 0.1 -5.96046e-008
v -0.2 0.1 -0.1
v -0.2 0.2 -5.96046e-008
v -0.2 0.2 -0.1
v -0.2 0.3 0.0999999
v -0.2 0.3 -0.1
v -0.0999999 0 0.0999999
v -0.0999999 0 -5.96046e-008
v -0.0999999 0 -0.1
v -0.0999999 0.1 0.2
v -0.0999999 0.1 0.0999999
v -0.0999999 0.1 -5.96046e-008
v -0.0999999 0.1 -0.1
v -0.0999999 0.1 -0.2
v -0.0999999 0.2 0.2
v -0.0999999 0.2 0.0999999
v -0.0999999 0.2 -0.1
v -0.0999999 0.3 0.2
v -0.0999999 0.3 0.0999999
v -0.0999999 0.3 -0.1
v -0.0999999 0.3 -0.2
v -0.0999999 0.4 0.0999999
v -0.0999999 0.4 -0.1
v 0.1 0 0.0999999
v 0.1 0 -0.1
v 0.1 0.1 0.2
v 0.1 0.1 0.0999999
v 0.1 0.1 -5.96046e-008
v 0.1 0.1 -0.1
v 0.1 0.1 -0.2
v 0.1 0.2 0.0999999
v 0.1 0.2 -0.1
v 0.1 0.2 -0.2
v 0.1 0.3 0.2
v 0.1 0.3 0.0999999
v 0.1 0.3 -0.1
v 0.1 0.3 -0.2
v 0.1 0.4 0.0999999
v 0.1 0.4 -0.1
v 0.2 0.1 0.0999999
v 0.2 0.1 -5.96046e-008
v 0.2 0.1 -0.1
v 0.2 0.2 0.0999999
v 0.2 0.2 -5.96046e-008
v 0.2 0.3 0.0999999
v 0.2 0.3 -0.1
v -0.0999999 0.1 0.2
v -0.0999999 0.2 0.2
v -0.0999999 0.3 0.2
v 5.96046e-008 0.1 0.2
v 5.96046e-008 0.2 0.2
v 0.1 0.1 0.2
v 0.1 0.3 0.2
v -0.2 0.1 0.0999999
v -0.2 0.3 0.0999999
v -0.0999999 0 0.0999999
v -0.0999999 0.1 0.0999999
v -0.0999999 0.2 0.0999999
v -0.0999999 0.3 0.0999999
v -0.0999999 0.4 0.0999999
v 5.96046e-008 0 0.0999999
v 5.96046e-008 0.1 0.0999999
v 5.96046e-008 0.3 0.0999999
v 5.96046e-008 0.4 0.0999999
v 0.1 0 0.0999999
v 0.1 0.1 0.0999999
v 0.1 0.2 0.0999999
v 0.1 0.3 0.0999999
v 0.1 0.4 0.0999999
v 0.2 0.1 0.0999999
v 0.2 0.2 0.0999999
v 0.2 0.3 0.0999999
v -0.2 0.1 -0.1
v -0.2 0.2 -0.1
v -0.2 0.3 -0.1
v -0.0999999 0 -0.1
v -0.0999999 0.1 -0.1
v -0.0999999 0.2 -0.1
v -0.0999999 0.3 -0.1
v -0.0999999 0.4 -0.1
v 5.96046e-008 0.1 -0.1
v 5.96046e-008 0.3 -0.1
v 5.96046e-008 0.4 -0.1
v 0.1 0 -0.1
v 0.1 0.1 -0.1
v 0.1 0.2 -0.1
v 0.1 0.3 -0.1
v 0.1 0.4 -0.1
v 0.2 0.1 -0.1
v 0.2 0.3 -0.1
v -0.0999999 0.1 -0.2
v -0.0999999 0.3 -0.2
v 5.96046e-008 0.1 -0.2
v 5.96046e-008 0.2 -0.2
v 0.1 0.1 -0.2
v 0.1 0.2 -0.2
v 0.1 0.3 -0.2
v -0.0999999 0 0.0999999
v 5.96046e-008 0 0.0999999
v 0.1 0 0.0999999
v -0.0999999 0 -5.96046e-008
v 5.96046e-008 0 -5.96046e-008
v -0.0999999 0 -0.1
v 0.1 0 -0.1
v -0.0999999 0.1 0.2
v 5.96046e-008 0.1 0.2
v 0.1 0.1 0.2
v -0.2 0.1 0.0999999
v -0.0999999 0.1 0.0999999
v 5.96046e-008 0.1 0.0999999
v 0.1 0.1 0.0999999
v 0.2 0.1 0.0999999
v -0.2 0.1 -5.96046e-008
v -0.0999999 0.1 -5.96046e-008
v 0.1 0.1 -5.96046e-008
v 0.2 0.1 -5.96046e-008
v -0.2 0.1 -0.1
v -0.0999999 0.1 -0.1
v 5.96046e-008 0.1 -0.1
v 0.1 0.1 -0.1
v 0.2 0.1 -0.1
v -0.0999999 0.1 -0.2
v 5.96046e-008 0.1 -0.2
v 0.1 0.1 -0.2
v -0.0999999 0.3 0.2
v 0.1 0.3 0.2
v -0.2 0.3 0.0999999
v -0.0999999 0.3 0.0999999
v 5.96046e-008 0.3 0.0999999
v 0.1 0.3 0.0999999
v 0.2 0.3 0.0999999
v -0.2 0.3 -0.1
v -0.0999999 0.3 -0.1
v 5.96046e-008 0.3 -0.1
v 0.1 0.3 -0.1
v 0.2 0.3 -0.1
v -0.0999999 0.3 -0.2
v 0.1 0.3 -0.2
v -0.0999999 0.4 0.0999999
v 5.96046e-008 0.4 0.0999999
v 0.1 0.4 0.0999999
v -0.0999999 0.4 -0.1
v 5.96046e-008 0.4 -0.1
v 0.1 0.4 -0.1

# faces
f 4/1/1 2/1/1 1/1/1
f 4/2/1 3/2/1 2/2/1
f 5/2/1 3/2/1 4/2/1
f 6/1/1 4/1/1 1/1/1
f 6/1/1 5/1/1 4/1/1
f 7/1/1 5/1/1 6/1/1
f 12/2/1 9/2/1 8/2/1
f 13/1/1 10/1/1 9/1/1
f 13/2/1 9/2/1 12/2/1
f 14/1/1 10/1/1 13/1/1
f 16/2/1 12/2/1 11/2/1
f 17/2/1 12/2/1 16/2/1
f 18/1/1 15/1/1 14/1/1
f 19/1/1 17/1/1 16/1/1
f 20/1/1 17/1/1 19/1/1
f 21/1/1 15/1/1 18/1/1
f 22/1/1 15/1/1 21/1/1
f 23/2/1 21/2/1 20/2/1
f 24/2/1 21/2/1 23/2/1
f 25/1/2 26/1/2 28/1/2
f 28/1/2 26/1/2 29/1/2
f 29/1/2 26/1/2 30/1/2
f 27/1/2 28/1/2 32/1/2
f 30/2/2 31/2/2 33/2/2
f 33/2/2 31/2/2 34/2/2
f 27/1/2 32/1/2 35/1/2
f 35/1/2 32/1/2 36/1/2
f 33/1/2 34/1/2 37/1/2
f 37/1/2 34/1/2 38/1/2
f 36/1/2 37/1/2 39/1/2
f 39/1/2 37/1/2 40/1/2
f 41/2/2 42/2/2 44/2/2
f 42/1/2 43/1/2 45/1/2
f 44/2/2 42/2/2 45/2/2
f 44/1/2 45/1/2 46/1/2
f 45/1/2 43/1/2 47/1/2
f 46/1/2 45/1/2 47/1/2
f 51/2/3 49/2/3 48/2/3
f 52/1/3 50/1/3 49/1/3
f 52/2/3 49/2/3 51/2/3
f 53/1/3 52/1/3 51/1/3
f 54/1/3 50/1/3 52/1/3
f 54/1/3 52/1/3 53/1/3
f 58/1/3 56/1/3 55/1/3
f 59/1/3 56/1/3 58/1/3
f 60/1/3 56/1/3 59/1/3
f 62/2/3 58/2/3 57/2/3
f 63/2/3 58/2/3 62/2/3
f 64/2/3 61/2/3 60/2/3
f 65/2/3 61/2/3 64/2/3
f 66/1/3 63/1/3 62/1/3
f 67/1/3 63/1/3 66/1/3
f 69/1/3 65/1/3 64/1/3
f 70/1/3 65/1/3 69/1/3
f 71/2/3 68/2/3 67/2/3
f 72/1/3 69/1/3 68/1/3
f 72/2/3 68/2/3 71/2/3
f 73/1/3 69/1/3 72/1/3
f 74/2/4 75/2/4 78/2/4
f 75/1/4 76/1/4 79/1/4
f 78/2/4 75/2/4 79/2/4
f 79/1/4 76/1/4 80/1/4
f 77/1/4 78/1/4 82/1/4
f 80/2/4 81/2/4 83/2/4
f 83/2/4 81/2/4 84/2/4
f 77/1/4 82/1/4 85/1/4
f 85/1/4 82/1/4 86/1/4
f 83/1/4 84/1/4 88/1/4
f 88/1/4 84/1/4 89/1/4
f 86/1/4 87/1/4 90/1/4
f 87/1/4 88/1/4 90/1/4
f 90/1/4 88/1/4 91/1/4
f 92/1/4 93/1/4 94/1/4
f 94/1/4 93/1/4 95/1/4
f 94/2/4 95/2/4 96/2/4
f 95/1/4 93/1/4 97/1/4
f 96/2/4 95/2/4 97/2/4
f 97/1/4 93/1/4 98/1/4
f 102/2/5 100/2/5 99/2/5
f 103/1/5 101/1/5 100/1/5
f 103/2/5 100/2/5 102/2/5
f 104/1/5 103/1/5 102/1/5
f 105/1/5 101/1/5 103/1/5
f 105/1/5 103/1/5 104/1/5
f 110/2/5 107/2/5 106/2/5
f 111/1/5 108/1/5 107/1/5
f 111/2/5 107/2/5 110/2/5
f 112/1/5 108/1/5 111/1/5
f 114/1/5 110/1/5 109/1/5
f 115/1/5 110/1/5 114/1/5
f 116/2/5 113/2/5 112/2/5
f 117/2/5 113/2/5 116/2/5
f 118/2/5 115/2/5 114/2/5
f 119/2/5 115/2/5 118/2/5
f 121/1/5 117/1/5 116/1/5
f 122/1/5 117/1/5 121/1/5
f 123/1/5 120/1/5 119/1/5
f 124/2/5 121/2/5 120/2/5
f 124/1/5 120/1/5 123/1/5
f 125/2/5 121/2/5 124/2/5
f 126/1/6 127/1/6 129/1/6
f 129/1/6 127/1/6 130/1/6
f 130/1/6 127/1/6 131/1/6
f 128/1/6 129/1/6 133/1/6
f 133/1/6 129/1/6 134/1/6
f 131/1/6 132/1/6 136/1/6
f 136/1/6 132/1/6 137/1/6
f 134/1/6 135/1/6 138/1/6
f 135/1/6 136/1/6 138/1/6
f 138/1/6 136/1/6 139/1/6
f 140/2/6 141/2/6 143/2/6
f 141/1/6 142/1/6 144/1/6
f 143/2/6 141/2/6 144/2/6
f 144/1/6 142/1/6 145/1/6
