# MagicaVoxel @ Ephtracy

# group
o 

# material
mtllib Book_1.mtl
usemtl palette

# normals
vn -1 0 0
vn 1 0 0
vn 0 0 1
vn 0 0 -1
vn 0 -1 0
vn 0 1 0

# texcoords
vt 0.724609 0.5
vt 0.892578 0.5
vt 0.962891 0.5

# verts
v -0.6 0.1 0.7
v -0.6 0.1 0.6
v -0.6 0.1 0.4
v -0.6 0.1 0.3
v -0.6 0.1 0.2
v -0.6 0.1 0.1
v -0.6 0.1 -0.2
v -0.6 0.1 -0.3
v -0.6 0.1 -0.6
v -0.6 0.1 -0.7
v -0.6 0.2 0.5
v -0.6 0.2 0.4
v -0.6 0.2 0.3
v -0.6 0.2 0.2
v -0.6 0.2 0.1
v -0.6 0.2 -0.1
v -0.6 0.2 -0.4
v -0.6 0.2 -0.5
v -0.6 0.3 0.7
v -0.6 0.3 0.6
v -0.6 0.3 0.5
v -0.6 0.3 0.4
v -0.6 0.3 0.1
v -0.6 0.3 -0.1
v -0.6 0.3 -0.2
v -0.6 0.3 -0.3
v -0.6 0.3 -0.4
v -0.6 0.3 -0.5
v -0.6 0.3 -0.6
v -0.6 0.3 -0.7
v -0.5 0 0.7
v -0.5 0 0.6
v -0.5 0 -0.6
v -0.5 0 -0.7
v -0.5 0.1 0.7
v -0.5 0.1 0.6
v -0.5 0.1 0.4
v -0.5 0.1 0.3
v -0.5 0.1 0.2
v -0.5 0.1 0.1
v -0.5 0.1 -0.2
v -0.5 0.1 -0.3
v -0.5 0.1 -0.6
v -0.5 0.1 -0.7
v -0.5 0.3 0.7
v -0.5 0.3 0.6
v -0.5 0.3 0.5
v -0.5 0.3 0.4
v -0.5 0.3 0.1
v -0.5 0.3 -0.1
v -0.5 0.3 -0.2
v -0.5 0.3 -0.3
v -0.5 0.3 -0.4
v -0.5 0.3 -0.5
v -0.5 0.3 -0.6
v -0.5 0.3 -0.7
v -0.5 0.4 0.7
v -0.5 0.4 0.6
v -0.5 0.4 -0.6
v -0.5 0.4 -0.7
v -0.4 0.1 0.7
v -0.4 0.1 0.6
v -0.4 0.1 -0.6
v -0.4 0.1 -0.7
v -0.4 0.3 0.7
v -0.4 0.3 0.6
v -0.4 0.3 -0.6
v -0.4 0.3 -0.7
v 0.4 0.1 0.6
v 0.4 0.1 0.5
v 0.4 0.1 0.1
v 0.4 0.1 -0.1
v 0.4 0.1 -0.5
v 0.4 0.1 -0.6
v 0.4 0.3 0.6
v 0.4 0.3 0.5
v 0.4 0.3 0.1
v 0.4 0.3 -0.1
v 0.4 0.3 -0.5
v 0.4 0.3 -0.6
v 0.5 0 0.7
v 0.5 0 0.5
v 0.5 0 0.1
v 0.5 0 -0.1
v 0.5 0 -0.5
v 0.5 0 -0.7
v 0.5 0.1 0.7
v 0.5 0.1 0.5
v 0.5 0.1 0.1
v 0.5 0.1 -0.1
v 0.5 0.1 -0.5
v 0.5 0.1 -0.7
v 0.5 0.3 0.7
v 0.5 0.3 0.5
v 0.5 0.3 0.1
v 0.5 0.3 -0.1
v 0.5 0.3 -0.5
v 0.5 0.3 -0.7
v 0.5 0.4 0.7
v 0.5 0.4 0.5
v 0.5 0.4 0.1
v 0.5 0.4 -0.1
v 0.5 0.4 -0.5
v 0.5 0.4 -0.7
v -0.6 0.1 0.7
v -0.6 0.3 0.7
v -0.5 0 0.7
v -0.5 0.1 0.7
v -0.5 0.3 0.7
v -0.5 0.4 0.7
v -0.4 0 0.7
v -0.4 0.1 0.7
v -0.4 0.3 0.7
v -0.4 0.4 0.7
v 0.3 0 0.7
v 0.3 0.1 0.7
v 0.3 0.3 0.7
v 0.3 0.4 0.7
v 0.5 0 0.7
v 0.5 0.1 0.7
v 0.5 0.3 0.7
v 0.5 0.4 0.7
v -0.4 0.1 0.6
v -0.4 0.3 0.6
v 0.3 0.1 0.6
v 0.3 0.3 0.6
v 0.4 0.1 0.6
v 0.4 0.3 0.6
v 0.4 0.1 0.1
v 0.4 0.3 0.1
v 0.5 0.1 0.1
v 0.5 0.3 0.1
v 0.4 0.1 -0.1
v 0.4 0.3 -0.1
v 0.5 0.1 -0.1
v 0.5 0.3 -0.1
v -0.4 0.1 -0.6
v -0.4 0.3 -0.6
v 0.3 0.1 -0.6
v 0.3 0.3 -0.6
v 0.4 0.1 -0.6
v 0.4 0.3 -0.6
v -0.6 0.1 -0.7
v -0.6 0.3 -0.7
v -0.5 0 -0.7
v -0.5 0.1 -0.7
v -0.5 0.3 -0.7
v -0.5 0.4 -0.7
v -0.4 0 -0.7
v -0.4 0.1 -0.7
v -0.4 0.3 -0.7
v -0.4 0.4 -0.7
v 0.3 0 -0.7
v 0.3 0.1 -0.7
v 0.3 0.3 -0.7
v 0.3 0.4 -0.7
v 0.5 0 -0.7
v 0.5 0.1 -0.7
v 0.5 0.3 -0.7
v 0.5 0.4 -0.7
v -0.5 0 0.7
v -0.4 0 0.7
v 0.3 0 0.7
v 0.5 0 0.7
v -0.5 0 0.6
v -0.4 0 0.6
v 0.3 0 0.6
v 0.4 0 0.6
v 0.4 0 0.5
v 0.5 0 0.5
v -0.4 0 0.4
v -0.3 0 0.4
v -0.3 0 0.3
v -0.2 0 0.3
v 0.1 0 0.2
v 0.3 0 0.2
v 5.96046e-008 0 0.1
v 0.1 0 0.1
v 0.3 0 0.1
v 0.5 0 0.1
v 5.96046e-008 0 -0.1
v 0.1 0 -0.1
v 0.3 0 -0.1
v 0.5 0 -0.1
v 0.1 0 -0.2
v 0.3 0 -0.2
v -0.3 0 -0.3
v -0.2 0 -0.3
v -0.4 0 -0.4
v -0.3 0 -0.4
v 0.4 0 -0.5
v 0.5 0 -0.5
v -0.5 0 -0.6
v -0.4 0 -0.6
v 0.3 0 -0.6
v 0.4 0 -0.6
v -0.5 0 -0.7
v -0.4 0 -0.7
v 0.3 0 -0.7
v 0.5 0 -0.7
v -0.6 0.1 0.7
v -0.5 0.1 0.7
v -0.6 0.1 0.6
v -0.5 0.1 0.6
v -0.6 0.1 0.4
v -0.5 0.1 0.4
v -0.6 0.1 0.3
v -0.5 0.1 0.3
v -0.6 0.1 0.2
v -0.5 0.1 0.2
v -0.6 0.1 0.1
v -0.5 0.1 0.1
v -0.6 0.1 -0.2
v -0.5 0.1 -0.2
v -0.6 0.1 -0.3
v -0.5 0.1 -0.3
v -0.6 0.1 -0.6
v -0.5 0.1 -0.6
v -0.6 0.1 -0.7
v -0.5 0.1 -0.7
v -0.4 0.3 0.7
v 0.3 0.3 0.7
v 0.5 0.3 0.7
v -0.4 0.3 0.6
v 0.3 0.3 0.6
v 0.4 0.3 0.6
v 0.4 0.3 0.5
v 0.5 0.3 0.5
v 0.4 0.3 0.1
v 0.5 0.3 0.1
v 0.4 0.3 -0.1
v 0.5 0.3 -0.1
v 0.4 0.3 -0.5
v 0.5 0.3 -0.5
v -0.4 0.3 -0.6
v 0.3 0.3 -0.6
v 0.4 0.3 -0.6
v -0.4 0.3 -0.7
v 0.3 0.3 -0.7
v 0.5 0.3 -0.7
v -0.4 0.1 0.7
v 0.3 0.1 0.7
v 0.5 0.1 0.7
v -0.4 0.1 0.6
v 0.3 0.1 0.6
v 0.4 0.1 0.6
v 0.4 0.1 0.5
v 0.5 0.1 0.5
v 0.4 0.1 0.1
v 0.5 0.1 0.1
v 0.4 0.1 -0.1
v 0.5 0.1 -0.1
v 0.4 0.1 -0.5
v 0.5 0.1 -0.5
v -0.4 0.1 -0.6
v 0.3 0.1 -0.6
v 0.4 0.1 -0.6
v -0.4 0.1 -0.7
v 0.3 0.1 -0.7
v 0.5 0.1 -0.7
v -0.6 0.3 0.7
v -0.5 0.3 0.7
v -0.6 0.3 0.6
v -0.5 0.3 0.6
v -0.6 0.3 0.5
v -0.5 0.3 0.5
v -0.6 0.3 0.4
v -0.5 0.3 0.4
v -0.6 0.3 0.1
v -0.5 0.3 0.1
v -0.6 0.3 -0.1
v -0.5 0.3 -0.1
v -0.6 0.3 -0.2
v -0.5 0.3 -0.2
v -0.6 0.3 -0.3
v -0.5 0.3 -0.3
v -0.6 0.3 -0.4
v -0.5 0.3 -0.4
v -0.6 0.3 -0.5
v -0.5 0.3 -0.5
v -0.6 0.3 -0.6
v -0.5 0.3 -0.6
v -0.6 0.3 -0.7
v -0.5 0.3 -0.7
v -0.5 0.4 0.7
v -0.4 0.4 0.7
v 0.3 0.4 0.7
v 0.5 0.4 0.7
v -0.5 0.4 0.6
v -0.4 0.4 0.6
v 0.3 0.4 0.6
v 0.4 0.4 0.6
v 0.4 0.4 0.5
v 0.5 0.4 0.5
v -0.4 0.4 0.4
v -0.3 0.4 0.4
v -0.3 0.4 0.2
v -0.2 0.4 0.2
v 0.1 0.4 0.2
v 0.3 0.4 0.2
v 5.96046e-008 0.4 0.1
v 0.1 0.4 0.1
v 0.3 0.4 0.1
v 0.5 0.4 0.1
v 5.96046e-008 0.4 -0.1
v 0.1 0.4 -0.1
v 0.3 0.4 -0.1
v 0.5 0.4 -0.1
v -0.3 0.4 -0.2
v -0.2 0.4 -0.2
v 0.1 0.4 -0.2
v 0.3 0.4 -0.2
v -0.4 0.4 -0.4
v -0.3 0.4 -0.4
v 0.4 0.4 -0.5
v 0.5 0.4 -0.5
v -0.5 0.4 -0.6
v -0.4 0.4 -0.6
v 0.3 0.4 -0.6
v 0.4 0.4 -0.6
v -0.5 0.4 -0.7
v -0.4 0.4 -0.7
v 0.3 0.4 -0.7
v 0.5 0.4 -0.7

# faces
f 11/1/1 3/1/1 2/1/1
f 12/2/1 4/2/1 3/2/1
f 12/1/1 3/1/1 11/1/1
f 13/1/1 5/1/1 4/1/1
f 13/2/1 4/2/1 12/2/1
f 14/2/1 6/2/1 5/2/1
f 14/1/1 5/1/1 13/1/1
f 15/1/1 7/1/1 6/1/1
f 15/2/1 6/2/1 14/2/1
f 16/1/1 7/1/1 15/1/1
f 17/1/1 9/1/1 8/1/1
f 18/1/1 9/1/1 17/1/1
f 19/2/1 2/2/1 1/2/1
f 20/1/1 11/1/1 2/1/1
f 20/2/1 2/2/1 19/2/1
f 21/2/1 12/2/1 11/2/1
f 21/1/1 11/1/1 20/1/1
f 22/1/1 13/1/1 12/1/1
f 22/2/1 12/2/1 21/2/1
f 22/1/1 14/1/1 13/1/1
f 22/1/1 15/1/1 14/1/1
f 23/2/1 16/2/1 15/2/1
f 23/1/1 15/1/1 22/1/1
f 24/1/1 7/1/1 16/1/1
f 24/2/1 16/2/1 23/2/1
f 25/2/1 8/2/1 7/2/1
f 25/1/1 7/1/1 24/1/1
f 26/1/1 17/1/1 8/1/1
f 26/2/1 8/2/1 25/2/1
f 27/2/1 18/2/1 17/2/1
f 27/1/1 17/1/1 26/1/1
f 28/1/1 9/1/1 18/1/1
f 28/2/1 18/2/1 27/2/1
f 29/2/1 10/2/1 9/2/1
f 29/1/1 9/1/1 28/1/1
f 30/2/1 10/2/1 29/2/1
f 35/2/1 32/2/1 31/2/1
f 36/1/1 33/1/1 32/1/1
f 36/2/1 32/2/1 35/2/1
f 37/1/1 33/1/1 36/1/1
f 38/1/1 33/1/1 37/1/1
f 39/1/1 33/1/1 38/1/1
f 40/1/1 33/1/1 39/1/1
f 41/1/1 33/1/1 40/1/1
f 42/1/1 33/1/1 41/1/1
f 43/2/1 34/2/1 33/2/1
f 43/1/1 33/1/1 42/1/1
f 44/2/1 34/2/1 43/2/1
f 57/2/1 46/2/1 45/2/1
f 58/1/1 47/1/1 46/1/1
f 58/2/1 46/2/1 57/2/1
f 58/1/1 48/1/1 47/1/1
f 58/1/1 55/1/1 54/1/1
f 58/1/1 54/1/1 53/1/1
f 58/1/1 53/1/1 52/1/1
f 58/1/1 52/1/1 51/1/1
f 58/1/1 51/1/1 50/1/1
f 58/1/1 50/1/1 49/1/1
f 58/1/1 49/1/1 48/1/1
f 59/2/1 56/2/1 55/2/1
f 59/1/1 55/1/1 58/1/1
f 60/2/1 56/2/1 59/2/1
f 61/2/2 62/2/2 65/2/2
f 65/2/2 62/2/2 66/2/2
f 63/1/2 64/1/2 67/1/2
f 67/1/2 64/1/2 68/1/2
f 69/3/2 70/3/2 75/3/2
f 70/3/2 71/3/2 75/3/2
f 75/3/2 71/3/2 76/3/2
f 76/3/2 71/3/2 77/3/2
f 73/3/2 74/3/2 78/3/2
f 72/3/2 73/3/2 78/3/2
f 78/3/2 74/3/2 79/3/2
f 79/3/2 74/3/2 80/3/2
f 81/2/2 82/2/2 87/2/2
f 82/1/2 83/1/2 88/1/2
f 87/2/2 82/2/2 88/2/2
f 83/2/2 84/2/2 89/2/2
f 88/1/2 83/1/2 89/1/2
f 84/1/2 85/1/2 90/1/2
f 89/2/2 84/2/2 90/2/2
f 85/2/2 86/2/2 91/2/2
f 90/1/2 85/1/2 91/1/2
f 91/2/2 86/2/2 92/2/2
f 89/2/2 90/2/2 95/2/2
f 95/2/2 90/2/2 96/2/2
f 93/2/2 94/2/2 99/2/2
f 94/1/2 95/1/2 100/1/2
f 99/2/2 94/2/2 100/2/2
f 95/2/2 96/2/2 101/2/2
f 100/1/2 95/1/2 101/1/2
f 96/1/2 97/1/2 102/1/2
f 101/2/2 96/2/2 102/2/2
f 97/2/2 98/2/2 103/2/2
f 102/1/2 97/1/2 103/1/2
f 103/2/2 98/2/2 104/2/2
f 108/2/3 106/2/3 105/2/3
f 109/2/3 106/2/3 108/2/3
f 111/2/3 108/2/3 107/2/3
f 111/2/3 110/2/3 109/2/3
f 111/2/3 109/2/3 108/2/3
f 112/2/3 110/2/3 111/2/3
f 113/2/3 110/2/3 112/2/3
f 114/2/3 110/2/3 113/2/3
f 115/1/3 112/1/3 111/1/3
f 116/1/3 112/1/3 115/1/3
f 117/1/3 114/1/3 113/1/3
f 118/1/3 114/1/3 117/1/3
f 119/2/3 116/2/3 115/2/3
f 120/2/3 116/2/3 119/2/3
f 121/2/3 118/2/3 117/2/3
f 122/2/3 118/2/3 121/2/3
f 125/3/3 124/3/3 123/3/3
f 126/3/3 124/3/3 125/3/3
f 127/3/3 126/3/3 125/3/3
f 128/3/3 126/3/3 127/3/3
f 131/2/3 130/2/3 129/2/3
f 132/2/3 130/2/3 131/2/3
f 133/2/4 134/2/4 135/2/4
f 135/2/4 134/2/4 136/2/4
f 137/3/4 138/3/4 139/3/4
f 139/3/4 138/3/4 140/3/4
f 139/3/4 140/3/4 141/3/4
f 141/3/4 140/3/4 142/3/4
f 143/2/4 144/2/4 146/2/4
f 146/2/4 144/2/4 147/2/4
f 145/2/4 146/2/4 149/2/4
f 146/1/4 147/1/4 150/1/4
f 149/2/4 146/2/4 150/2/4
f 147/2/4 148/2/4 151/2/4
f 150/1/4 147/1/4 151/1/4
f 151/2/4 148/2/4 152/2/4
f 149/1/4 150/1/4 153/1/4
f 153/1/4 150/1/4 154/1/4
f 151/1/4 152/1/4 155/1/4
f 155/1/4 152/1/4 156/1/4
f 153/2/4 154/2/4 157/2/4
f 157/2/4 154/2/4 158/2/4
f 155/2/4 156/2/4 159/2/4
f 159/2/4 156/2/4 160/2/4
f 165/2/5 162/2/5 161/2/5
f 166/1/5 163/1/5 162/1/5
f 166/2/5 162/2/5 165/2/5
f 167/2/5 164/2/5 163/2/5
f 167/1/5 163/1/5 166/1/5
f 168/2/5 164/2/5 167/2/5
f 169/1/5 166/1/5 165/1/5
f 169/2/5 164/2/5 168/2/5
f 169/1/5 168/1/5 167/1/5
f 169/1/5 167/1/5 166/1/5
f 170/2/5 164/2/5 169/2/5
f 171/1/5 169/1/5 165/1/5
f 171/1/5 170/1/5 169/1/5
f 172/1/5 170/1/5 171/1/5
f 173/2/5 172/2/5 171/2/5
f 173/1/5 170/1/5 172/1/5
f 174/1/5 170/1/5 173/1/5
f 175/1/5 170/1/5 174/1/5
f 176/1/5 170/1/5 175/1/5
f 177/1/5 175/1/5 174/1/5
f 178/2/5 176/2/5 175/2/5
f 178/1/5 175/1/5 177/1/5
f 179/1/5 170/1/5 176/1/5
f 179/2/5 176/2/5 178/2/5
f 180/1/5 170/1/5 179/1/5
f 181/2/5 178/2/5 177/2/5
f 181/1/5 177/1/5 174/1/5
f 181/2/5 180/2/5 179/2/5
f 181/2/5 179/2/5 178/2/5
f 182/2/5 180/2/5 181/2/5
f 183/2/5 180/2/5 182/2/5
f 184/2/5 180/2/5 183/2/5
f 185/1/5 182/1/5 181/1/5
f 185/2/5 183/2/5 182/2/5
f 186/1/5 184/1/5 183/1/5
f 186/2/5 183/2/5 185/2/5
f 187/2/5 173/2/5 171/2/5
f 187/2/5 174/2/5 173/2/5
f 188/1/5 186/1/5 185/1/5
f 188/2/5 174/2/5 187/2/5
f 188/1/5 181/1/5 174/1/5
f 188/1/5 185/1/5 181/1/5
f 189/1/5 171/1/5 165/1/5
f 189/2/5 187/2/5 171/2/5
f 190/1/5 188/1/5 187/1/5
f 190/2/5 187/2/5 189/2/5
f 191/1/5 186/1/5 188/1/5
f 191/1/5 188/1/5 190/1/5
f 191/1/5 190/1/5 189/1/5
f 191/1/5 184/1/5 186/1/5
f 192/1/5 184/1/5 191/1/5
f 193/1/5 189/1/5 165/1/5
f 193/1/5 191/1/5 189/1/5
f 194/1/5 191/1/5 193/1/5
f 195/1/5 191/1/5 194/1/5
f 196/2/5 192/2/5 191/2/5
f 196/1/5 191/1/5 195/1/5
f 197/2/5 194/2/5 193/2/5
f 198/1/5 195/1/5 194/1/5
f 198/2/5 194/2/5 197/2/5
f 199/2/5 196/2/5 195/2/5
f 199/1/5 195/1/5 198/1/5
f 200/2/5 192/2/5 196/2/5
f 200/2/5 196/2/5 199/2/5
f 203/2/5 202/2/5 201/2/5
f 204/2/5 202/2/5 203/2/5
f 205/1/5 204/1/5 203/1/5
f 206/1/5 204/1/5 205/1/5
f 207/2/5 206/2/5 205/2/5
f 208/2/5 206/2/5 207/2/5
f 209/1/5 208/1/5 207/1/5
f 210/1/5 208/1/5 209/1/5
f 211/2/5 210/2/5 209/2/5
f 212/2/5 210/2/5 211/2/5
f 213/1/5 212/1/5 211/1/5
f 214/1/5 212/1/5 213/1/5
f 215/2/5 214/2/5 213/2/5
f 216/2/5 214/2/5 215/2/5
f 217/1/5 216/1/5 215/1/5
f 218/1/5 216/1/5 217/1/5
f 219/2/5 218/2/5 217/2/5
f 220/2/5 218/2/5 219/2/5
f 224/1/5 222/1/5 221/1/5
f 225/2/5 223/2/5 222/2/5
f 225/1/5 222/1/5 224/1/5
f 226/2/5 223/2/5 225/2/5
f 227/2/5 223/2/5 226/2/5
f 228/2/5 223/2/5 227/2/5
f 229/1/5 228/1/5 227/1/5
f 230/1/5 228/1/5 229/1/5
f 233/1/5 232/1/5 231/1/5
f 234/1/5 232/1/5 233/1/5
f 237/2/5 234/2/5 233/2/5
f 238/1/5 236/1/5 235/1/5
f 239/2/5 237/2/5 236/2/5
f 239/1/5 236/1/5 238/1/5
f 240/2/5 234/2/5 237/2/5
f 240/2/5 237/2/5 239/2/5
f 241/1/6 242/1/6 244/1/6
f 242/2/6 243/2/6 245/2/6
f 244/1/6 242/1/6 245/1/6
f 245/2/6 243/2/6 246/2/6
f 246/2/6 243/2/6 247/2/6
f 247/2/6 243/2/6 248/2/6
f 247/1/6 248/1/6 249/1/6
f 249/1/6 248/1/6 250/1/6
f 251/1/6 252/1/6 253/1/6
f 253/1/6 252/1/6 254/1/6
f 253/2/6 254/2/6 257/2/6
f 255/1/6 256/1/6 258/1/6
f 256/2/6 257/2/6 259/2/6
f 258/1/6 256/1/6 259/1/6
f 257/2/6 254/2/6 260/2/6
f 259/2/6 257/2/6 260/2/6
f 261/2/6 262/2/6 263/2/6
f 263/2/6 262/2/6 264/2/6
f 263/1/6 264/1/6 265/1/6
f 265/1/6 264/1/6 266/1/6
f 265/2/6 266/2/6 267/2/6
f 267/2/6 266/2/6 268/2/6
f 267/1/6 268/1/6 269/1/6
f 269/1/6 268/1/6 270/1/6
f 269/2/6 270/2/6 271/2/6
f 271/2/6 270/2/6 272/2/6
f 271/1/6 272/1/6 273/1/6
f 273/1/6 272/1/6 274/1/6
f 273/2/6 274/2/6 275/2/6
f 275/2/6 274/2/6 276/2/6
f 275/1/6 276/1/6 277/1/6
f 277/1/6 276/1/6 278/1/6
f 277/2/6 278/2/6 279/2/6
f 279/2/6 278/2/6 280/2/6
f 279/1/6 280/1/6 281/1/6
f 281/1/6 280/1/6 282/1/6
f 281/2/6 282/2/6 283/2/6
f 283/2/6 282/2/6 284/2/6
f 285/2/6 286/2/6 289/2/6
f 286/1/6 287/1/6 290/1/6
f 289/2/6 286/2/6 290/2/6
f 287/2/6 288/2/6 291/2/6
f 290/1/6 287/1/6 291/1/6
f 291/2/6 288/2/6 292/2/6
f 289/1/6 290/1/6 293/1/6
f 292/2/6 288/2/6 293/2/6
f 291/1/6 292/1/6 293/1/6
f 290/1/6 291/1/6 293/1/6
f 293/2/6 288/2/6 294/2/6
f 289/1/6 293/1/6 295/1/6
f 293/1/6 294/1/6 295/1/6
f 295/1/6 294/1/6 296/1/6
f 295/2/6 296/2/6 297/2/6
f 296/1/6 294/1/6 297/1/6
f 297/1/6 294/1/6 298/1/6
f 298/1/6 294/1/6 299/1/6
f 299/1/6 294/1/6 300/1/6
f 298/1/6 299/1/6 301/1/6
f 299/2/6 300/2/6 302/2/6
f 301/1/6 299/1/6 302/1/6
f 300/1/6 294/1/6 303/1/6
f 302/2/6 300/2/6 303/2/6
f 303/1/6 294/1/6 304/1/6
f 301/2/6 302/2/6 305/2/6
f 298/1/6 301/1/6 305/1/6
f 303/2/6 304/2/6 305/2/6
f 302/2/6 303/2/6 305/2/6
f 305/2/6 304/2/6 306/2/6
f 306/2/6 304/2/6 307/2/6
f 307/2/6 304/2/6 308/2/6
f 295/2/6 297/2/6 309/2/6
f 297/2/6 298/2/6 309/2/6
f 298/1/6 305/1/6 310/1/6
f 309/2/6 298/2/6 310/2/6
f 305/1/6 306/1/6 310/1/6
f 306/2/6 307/2/6 311/2/6
f 310/1/6 306/1/6 311/1/6
f 307/1/6 308/1/6 312/1/6
f 311/2/6 307/2/6 312/2/6
f 289/1/6 295/1/6 313/1/6
f 295/2/6 309/2/6 313/2/6
f 310/1/6 311/1/6 314/1/6
f 313/2/6 309/2/6 314/2/6
f 311/1/6 312/1/6 314/1/6
f 309/1/6 310/1/6 314/1/6
f 312/1/6 308/1/6 315/1/6
f 314/1/6 312/1/6 315/1/6
f 313/1/6 314/1/6 315/1/6
f 315/1/6 308/1/6 316/1/6
f 289/1/6 313/1/6 317/1/6
f 313/1/6 315/1/6 317/1/6
f 317/1/6 315/1/6 318/1/6
f 318/1/6 315/1/6 319/1/6
f 315/2/6 316/2/6 320/2/6
f 319/1/6 315/1/6 320/1/6
f 317/2/6 318/2/6 321/2/6
f 318/1/6 319/1/6 322/1/6
f 321/2/6 318/2/6 322/2/6
f 319/2/6 320/2/6 323/2/6
f 322/1/6 319/1/6 323/1/6
f 320/2/6 316/2/6 324/2/6
f 323/2/6 320/2/6 324/2/6
