# MagicaVoxel @ Ephtracy

# group
o 

# material
mtllib Potion of Mana.mtl
usemtl palette

# normals
vn -1 0 0
vn 1 0 0
vn 0 0 1
vn 0 0 -1
vn 0 -1 0
vn 0 1 0

# texcoords
vt 0.724609 0.5
vt 0.783203 0.5
vt 0.787109 0.5

# verts
v -0.2 0.1 0.0999999
v -0.2 0.1 -5.96046e-008
v -0.2 0.1 -0.1
v -0.2 0.2 0.2
v -0.2 0.2 0.0999999
v -0.2 0.2 -5.96046e-008
v -0.2 0.2 -0.1
v -0.2 0.2 -0.2
v -0.2 0.4 0.2
v -0.2 0.4 0.0999999
v -0.2 0.4 -5.96046e-008
v -0.2 0.4 -0.1
v -0.2 0.4 -0.2
v -0.2 0.5 0.0999999
v -0.2 0.5 -5.96046e-008
v -0.2 0.5 -0.1
v -0.0999999 0 0.0999999
v -0.0999999 0 -0.1
v -0.0999999 0.1 0.2
v -0.0999999 0.1 0.0999999
v -0.0999999 0.1 -5.96046e-008
v -0.0999999 0.1 -0.1
v -0.0999999 0.1 -0.2
v -0.0999999 0.2 0.2
v -0.0999999 0.2 0.0999999
v -0.0999999 0.2 -0.1
v -0.0999999 0.2 -0.2
v -0.0999999 0.4 0.2
v -0.0999999 0.4 0.0999999
v -0.0999999 0.4 -0.1
v -0.0999999 0.4 -0.2
v -0.0999999 0.5 0.2
v -0.0999999 0.5 0.0999999
v -0.0999999 0.5 -5.96046e-008
v -0.0999999 0.5 -0.1
v -0.0999999 0.5 -0.2
v -0.0999999 0.7 0.0999999
v -0.0999999 0.7 -0.1
v -0.0999999 0.8 0.0999999
v -0.0999999 0.8 -0.1
v 0.1 0 0.0999999
v 0.1 0 -0.1
v 0.1 0.1 0.2
v 0.1 0.1 0.0999999
v 0.1 0.1 -5.96046e-008
v 0.1 0.1 -0.1
v 0.1 0.1 -0.2
v 0.1 0.2 0.2
v 0.1 0.2 0.0999999
v 0.1 0.2 -0.1
v 0.1 0.2 -0.2
v 0.1 0.4 0.2
v 0.1 0.4 0.0999999
v 0.1 0.4 -0.1
v 0.1 0.4 -0.2
v 0.1 0.5 0.2
v 0.1 0.5 0.0999999
v 0.1 0.5 -5.96046e-008
v 0.1 0.5 -0.1
v 0.1 0.5 -0.2
v 0.1 0.7 0.0999999
v 0.1 0.7 -0.1
v 0.1 0.8 0.0999999
v 0.1 0.8 -0.1
v 0.2 0.1 0.0999999
v 0.2 0.1 -5.96046e-008
v 0.2 0.1 -0.1
v 0.2 0.2 0.2
v 0.2 0.2 0.0999999
v 0.2 0.2 -5.96046e-008
v 0.2 0.2 -0.1
v 0.2 0.2 -0.2
v 0.2 0.4 0.2
v 0.2 0.4 0.0999999
v 0.2 0.4 -5.96046e-008
v 0.2 0.4 -0.1
v 0.2 0.4 -0.2
v 0.2 0.5 0.0999999
v 0.2 0.5 -5.96046e-008
v 0.2 0.5 -0.1
v -0.2 0.2 0.2
v -0.2 0.4 0.2
v -0.0999999 0.1 0.2
v -0.0999999 0.2 0.2
v -0.0999999 0.4 0.2
v -0.0999999 0.5 0.2
v 5.96046e-008 0.1 0.2
v 5.96046e-008 0.2 0.2
v 5.96046e-008 0.4 0.2
v 5.96046e-008 0.5 0.2
v 0.1 0.1 0.2
v 0.1 0.2 0.2
v 0.1 0.4 0.2
v 0.1 0.5 0.2
v 0.2 0.2 0.2
v 0.2 0.4 0.2
v -0.2 0.1 0.0999999
v -0.2 0.2 0.0999999
v -0.2 0.4 0.0999999
v -0.2 0.5 0.0999999
v -0.0999999 0 0.0999999
v -0.0999999 0.1 0.0999999
v -0.0999999 0.2 0.0999999
v -0.0999999 0.4 0.0999999
v -0.0999999 0.5 0.0999999
v -0.0999999 0.7 0.0999999
v -0.0999999 0.8 0.0999999
v 5.96046e-008 0.1 0.0999999
v 5.96046e-008 0.5 0.0999999
v 0.1 0 0.0999999
v 0.1 0.1 0.0999999
v 0.1 0.2 0.0999999
v 0.1 0.4 0.0999999
v 0.1 0.5 0.0999999
v 0.1 0.7 0.0999999
v 0.1 0.8 0.0999999
v 0.2 0.1 0.0999999
v 0.2 0.2 0.0999999
v 0.2 0.4 0.0999999
v 0.2 0.5 0.0999999
v -0.2 0.1 -0.1
v -0.2 0.2 -0.1
v -0.2 0.4 -0.1
v -0.2 0.5 -0.1
v -0.0999999 0 -0.1
v -0.0999999 0.1 -0.1
v -0.0999999 0.2 -0.1
v -0.0999999 0.4 -0.1
v -0.0999999 0.5 -0.1
v -0.0999999 0.7 -0.1
v -0.0999999 0.8 -0.1
v 5.96046e-008 0.1 -0.1
v 5.96046e-008 0.5 -0.1
v 0.1 0 -0.1
v 0.1 0.1 -0.1
v 0.1 0.2 -0.1
v 0.1 0.4 -0.1
v 0.1 0.5 -0.1
v 0.1 0.7 -0.1
v 0.1 0.8 -0.1
v 0.2 0.1 -0.1
v 0.2 0.2 -0.1
v 0.2 0.4 -0.1
v 0.2 0.5 -0.1
v -0.2 0.2 -0.2
v -0.2 0.4 -0.2
v -0.0999999 0.1 -0.2
v -0.0999999 0.2 -0.2
v -0.0999999 0.4 -0.2
v -0.0999999 0.5 -0.2
v 5.96046e-008 0.1 -0.2
v 5.96046e-008 0.2 -0.2
v 5.96046e-008 0.4 -0.2
v 5.96046e-008 0.5 -0.2
v 0.1 0.1 -0.2
v 0.1 0.2 -0.2
v 0.1 0.4 -0.2
v 0.1 0.5 -0.2
v 0.2 0.2 -0.2
v 0.2 0.4 -0.2
v -0.0999999 0 0.0999999
v 0.1 0 0.0999999
v -0.0999999 0 -0.1
v 0.1 0 -0.1
v -0.0999999 0.1 0.2
v 5.96046e-008 0.1 0.2
v 0.1 0.1 0.2
v -0.2 0.1 0.0999999
v -0.0999999 0.1 0.0999999
v 5.96046e-008 0.1 0.0999999
v 0.1 0.1 0.0999999
v 0.2 0.1 0.0999999
v -0.2 0.1 -5.96046e-008
v -0.0999999 0.1 -5.96046e-008
v 0.1 0.1 -5.96046e-008
v 0.2 0.1 -5.96046e-008
v -0.2 0.1 -0.1
v -0.0999999 0.1 -0.1
v 5.96046e-008 0.1 -0.1
v 0.1 0.1 -0.1
v 0.2 0.1 -0.1
v -0.0999999 0.1 -0.2
v 5.96046e-008 0.1 -0.2
v 0.1 0.1 -0.2
v -0.2 0.2 0.2
v -0.0999999 0.2 0.2
v 0.1 0.2 0.2
v 0.2 0.2 0.2
v -0.2 0.2 0.0999999
v -0.0999999 0.2 0.0999999
v 0.1 0.2 0.0999999
v 0.2 0.2 0.0999999
v -0.2 0.2 -0.1
v -0.0999999 0.2 -0.1
v 0.1 0.2 -0.1
v 0.2 0.2 -0.1
v -0.2 0.2 -0.2
v -0.0999999 0.2 -0.2
v 0.1 0.2 -0.2
v 0.2 0.2 -0.2
v -0.2 0.4 0.2
v -0.0999999 0.4 0.2
v 0.1 0.4 0.2
v 0.2 0.4 0.2
v -0.2 0.4 0.0999999
v -0.0999999 0.4 0.0999999
v 0.1 0.4 0.0999999
v 0.2 0.4 0.0999999
v -0.2 0.4 -0.1
v -0.0999999 0.4 -0.1
v 0.1 0.4 -0.1
v 0.2 0.4 -0.1
v -0.2 0.4 -0.2
v -0.0999999 0.4 -0.2
v 0.1 0.4 -0.2
v 0.2 0.4 -0.2
v -0.0999999 0.5 0.2
v 5.96046e-008 0.5 0.2
v 0.1 0.5 0.2
v -0.2 0.5 0.0999999
v -0.0999999 0.5 0.0999999
v 5.96046e-008 0.5 0.0999999
v 0.1 0.5 0.0999999
v 0.2 0.5 0.0999999
v -0.2 0.5 -5.96046e-008
v -0.0999999 0.5 -5.96046e-008
v 0.1 0.5 -5.96046e-008
v 0.2 0.5 -5.96046e-008
v -0.2 0.5 -0.1
v -0.0999999 0.5 -0.1
v 5.96046e-008 0.5 -0.1
v 0.1 0.5 -0.1
v 0.2 0.5 -0.1
v -0.0999999 0.5 -0.2
v 5.96046e-008 0.5 -0.2
v 0.1 0.5 -0.2
v -0.0999999 0.8 0.0999999
v 0.1 0.8 0.0999999
v -0.0999999 0.8 -0.1
v 0.1 0.8 -0.1

# faces
f 5/3/1 2/3/1 1/3/1
f 6/2/1 3/2/1 2/2/1
f 6/3/1 2/3/1 5/3/1
f 7/2/1 3/2/1 6/2/1
f 9/3/1 5/3/1 4/3/1
f 9/3/1 8/3/1 7/3/1
f 9/3/1 7/3/1 6/3/1
f 9/3/1 6/3/1 5/3/1
f 10/3/1 8/3/1 9/3/1
f 11/3/1 8/3/1 10/3/1
f 12/3/1 8/3/1 11/3/1
f 13/3/1 8/3/1 12/3/1
f 14/2/1 11/2/1 10/2/1
f 15/3/1 12/3/1 11/3/1
f 15/2/1 11/2/1 14/2/1
f 16/3/1 12/3/1 15/3/1
f 20/3/1 18/3/1 17/3/1
f 21/3/1 18/3/1 20/3/1
f 22/3/1 18/3/1 21/3/1
f 24/2/1 20/2/1 19/2/1
f 25/2/1 20/2/1 24/2/1
f 26/3/1 23/3/1 22/3/1
f 27/3/1 23/3/1 26/3/1
f 32/3/1 29/3/1 28/3/1
f 33/3/1 29/3/1 32/3/1
f 35/2/1 31/2/1 30/2/1
f 36/2/1 31/2/1 35/2/1
f 37/3/1 34/3/1 33/3/1
f 37/3/1 35/3/1 34/3/1
f 38/3/1 35/3/1 37/3/1
f 39/1/1 38/1/1 37/1/1
f 40/1/1 38/1/1 39/1/1
f 41/3/2 42/3/2 44/3/2
f 44/3/2 42/3/2 45/3/2
f 45/3/2 42/3/2 46/3/2
f 43/3/2 44/3/2 48/3/2
f 48/3/2 44/3/2 49/3/2
f 46/2/2 47/2/2 50/2/2
f 50/2/2 47/2/2 51/2/2
f 52/2/2 53/2/2 56/2/2
f 56/2/2 53/2/2 57/2/2
f 54/3/2 55/3/2 59/3/2
f 59/3/2 55/3/2 60/3/2
f 57/3/2 58/3/2 61/3/2
f 58/3/2 59/3/2 61/3/2
f 61/3/2 59/3/2 62/3/2
f 61/1/2 62/1/2 63/1/2
f 63/1/2 62/1/2 64/1/2
f 65/2/2 66/2/2 69/2/2
f 66/3/2 67/3/2 70/3/2
f 69/2/2 66/2/2 70/2/2
f 70/3/2 67/3/2 71/3/2
f 68/3/2 69/3/2 73/3/2
f 71/3/2 72/3/2 73/3/2
f 70/3/2 71/3/2 73/3/2
f 69/3/2 70/3/2 73/3/2
f 73/3/2 72/3/2 74/3/2
f 74/3/2 72/3/2 75/3/2
f 75/3/2 72/3/2 76/3/2
f 76/3/2 72/3/2 77/3/2
f 74/3/2 75/3/2 78/3/2
f 75/2/2 76/2/2 79/2/2
f 78/3/2 75/3/2 79/3/2
f 79/2/2 76/2/2 80/2/2
f 84/3/3 82/3/3 81/3/3
f 85/3/3 82/3/3 84/3/3
f 87/2/3 84/2/3 83/2/3
f 88/3/3 86/3/3 85/3/3
f 88/2/3 84/2/3 87/2/3
f 88/3/3 85/3/3 84/3/3
f 89/3/3 86/3/3 88/3/3
f 90/3/3 86/3/3 89/3/3
f 91/3/3 88/3/3 87/3/3
f 91/3/3 89/3/3 88/3/3
f 92/3/3 89/3/3 91/3/3
f 93/2/3 90/2/3 89/2/3
f 93/3/3 89/3/3 92/3/3
f 94/2/3 90/2/3 93/2/3
f 95/3/3 93/3/3 92/3/3
f 96/3/3 93/3/3 95/3/3
f 102/3/3 98/3/3 97/3/3
f 103/3/3 98/3/3 102/3/3
f 104/2/3 100/2/3 99/2/3
f 105/2/3 100/2/3 104/2/3
f 108/3/3 102/3/3 101/3/3
f 109/3/3 106/3/3 105/3/3
f 110/3/3 108/3/3 101/3/3
f 111/3/3 108/3/3 110/3/3
f 114/3/3 106/3/3 109/3/3
f 115/1/3 107/1/3 106/1/3
f 115/3/3 106/3/3 114/3/3
f 116/1/3 107/1/3 115/1/3
f 117/2/3 112/2/3 111/2/3
f 118/2/3 112/2/3 117/2/3
f 119/3/3 114/3/3 113/3/3
f 120/3/3 114/3/3 119/3/3
f 121/2/4 122/2/4 126/2/4
f 126/2/4 122/2/4 127/2/4
f 123/3/4 124/3/4 128/3/4
f 128/3/4 124/3/4 129/3/4
f 125/3/4 126/3/4 132/3/4
f 129/3/4 130/3/4 133/3/4
f 125/3/4 132/3/4 134/3/4
f 134/3/4 132/3/4 135/3/4
f 133/3/4 130/3/4 138/3/4
f 130/1/4 131/1/4 139/1/4
f 138/3/4 130/3/4 139/3/4
f 139/1/4 131/1/4 140/1/4
f 135/3/4 136/3/4 141/3/4
f 141/3/4 136/3/4 142/3/4
f 137/2/4 138/2/4 143/2/4
f 143/2/4 138/2/4 144/2/4
f 145/3/4 146/3/4 148/3/4
f 148/3/4 146/3/4 149/3/4
f 147/3/4 148/3/4 151/3/4
f 148/3/4 149/3/4 151/3/4
f 151/3/4 149/3/4 152/3/4
f 149/2/4 150/2/4 153/2/4
f 152/3/4 149/3/4 153/3/4
f 153/2/4 150/2/4 154/2/4
f 151/2/4 152/2/4 155/2/4
f 152/3/4 153/3/4 156/3/4
f 155/2/4 152/2/4 156/2/4
f 153/3/4 154/3/4 156/3/4
f 156/3/4 154/3/4 157/3/4
f 157/3/4 154/3/4 158/3/4
f 156/3/4 157/3/4 159/3/4
f 159/3/4 157/3/4 160/3/4
f 163/3/5 162/3/5 161/3/5
f 164/3/5 162/3/5 163/3/5
f 169/2/5 166/2/5 165/2/5
f 170/3/5 167/3/5 166/3/5
f 170/2/5 166/2/5 169/2/5
f 171/3/5 167/3/5 170/3/5
f 173/3/5 169/3/5 168/3/5
f 174/3/5 169/3/5 173/3/5
f 175/2/5 172/2/5 171/2/5
f 176/2/5 172/2/5 175/2/5
f 177/2/5 174/2/5 173/2/5
f 178/2/5 174/2/5 177/2/5
f 180/3/5 176/3/5 175/3/5
f 181/3/5 176/3/5 180/3/5
f 182/3/5 179/3/5 178/3/5
f 183/2/5 180/2/5 179/2/5
f 183/3/5 179/3/5 182/3/5
f 184/2/5 180/2/5 183/2/5
f 189/3/5 186/3/5 185/3/5
f 190/3/5 186/3/5 189/3/5
f 191/3/5 188/3/5 187/3/5
f 192/3/5 188/3/5 191/3/5
f 197/3/5 194/3/5 193/3/5
f 198/3/5 194/3/5 197/3/5
f 199/3/5 196/3/5 195/3/5
f 200/3/5 196/3/5 199/3/5
f 201/3/6 202/3/6 205/3/6
f 205/3/6 202/3/6 206/3/6
f 203/3/6 204/3/6 207/3/6
f 207/3/6 204/3/6 208/3/6
f 209/3/6 210/3/6 213/3/6
f 213/3/6 210/3/6 214/3/6
f 211/3/6 212/3/6 215/3/6
f 215/3/6 212/3/6 216/3/6
f 217/3/6 218/3/6 221/3/6
f 218/2/6 219/2/6 222/2/6
f 221/3/6 218/3/6 222/3/6
f 222/2/6 219/2/6 223/2/6
f 220/2/6 221/2/6 225/2/6
f 225/2/6 221/2/6 226/2/6
f 223/3/6 224/3/6 227/3/6
f 227/3/6 224/3/6 228/3/6
f 225/3/6 226/3/6 229/3/6
f 229/3/6 226/3/6 230/3/6
f 227/2/6 228/2/6 232/2/6
f 232/2/6 228/2/6 233/2/6
f 230/2/6 231/2/6 234/2/6
f 231/3/6 232/3/6 235/3/6
f 234/2/6 231/2/6 235/2/6
f 235/3/6 232/3/6 236/3/6
f 237/1/6 238/1/6 239/1/6
f 239/1/6 238/1/6 240/1/6
