# MagicaVoxel @ Ephtracy

# group
o 

# material
mtllib Wiz_4_Exp_Normal.mtl
usemtl palette

# normals
vn -1 0 0
vn 1 0 0
vn 0 0 1
vn 0 0 -1
vn 0 -1 0
vn 0 1 0

# texcoords
vt 0.783203 0.5
vt 0.787109 0.5
vt 0.791016 0.5
vt 0.876953 0.5
vt 0.962891 0.5
vt 0.970703 0.5
vt 0.994141 0.5

# verts
v -0.4 0.5 0.3
v -0.4 0.5 -0.3
v -0.4 1 0.3
v -0.4 1 0.1
v -0.4 1.1 0.3
v -0.4 1.1 0.1
v -0.4 1.1 -0.3
v -0.3 0 0.2
v -0.3 0 -0.2
v -0.3 0.3 0.2
v -0.3 0.3 -0.2
v -0.3 0.5 0.2
v -0.3 0.5 -0.2
v -0.3 1.1 0.2
v -0.3 1.1 0.1
v -0.3 1.1 -2.98023e-008
v -0.3 1.1 -0.2
v -0.3 1.2 0.2
v -0.3 1.2 -2.98023e-008
v -0.3 1.2 -0.2
v -0.2 1.2 0.1
v -0.2 1.2 -2.98023e-008
v -0.2 1.2 -0.2
v -0.2 1.2 -0.3
v -0.2 1.3 0.1
v -0.2 1.3 -2.98023e-008
v -0.2 1.3 -0.3
v -0.1 1.1 -0.4
v -0.1 1.1 -0.5
v -0.1 1.2 -0.3
v -0.1 1.2 -0.4
v -0.1 1.2 -0.5
v -0.1 1.3 -0.3
v -0.1 1.3 -0.4
v 0.3 0.6 0.3
v 0.3 0.6 0.2
v 0.3 1 0.3
v 0.3 1 0.2
v -0.3 0.6 0.3
v -0.3 0.6 0.2
v -0.3 1 0.3
v -0.3 1 0.2
v 0.1 1.1 -0.4
v 0.1 1.1 -0.5
v 0.1 1.2 -0.3
v 0.1 1.2 -0.4
v 0.1 1.2 -0.5
v 0.1 1.3 -0.3
v 0.1 1.3 -0.4
v 0.2 1.2 0.1
v 0.2 1.2 -0.2
v 0.2 1.2 -0.3
v 0.2 1.3 0.1
v 0.2 1.3 -0.3
v 0.3 0 0.2
v 0.3 0 -0.2
v 0.3 0.3 0.2
v 0.3 0.3 -0.2
v 0.3 0.5 0.2
v 0.3 0.5 -0.2
v 0.3 1.1 0.2
v 0.3 1.1 -0.2
v 0.3 1.2 0.2
v 0.3 1.2 -0.2
v 0.4 0.5 0.3
v 0.4 0.5 -0.3
v 0.4 0.6 0.3
v 0.4 0.6 -0.3
v 0.4 1.1 0.3
v 0.4 1.1 -0.3
v -0.4 0.5 0.3
v -0.4 1 0.3
v -0.4 1.1 0.3
v -0.3 0.6 0.3
v -0.3 1 0.3
v -0.2 1 0.3
v -0.2 1.1 0.3
v 0.3 0.5 0.3
v 0.3 0.6 0.3
v 0.3 1 0.3
v 0.4 0.5 0.3
v 0.4 0.6 0.3
v 0.4 1.1 0.3
v -0.3 0 0.2
v -0.3 0.3 0.2
v -0.3 0.5 0.2
v -0.3 0.6 0.2
v -0.3 1 0.2
v -0.3 1.1 0.2
v -0.3 1.2 0.2
v -0.2 0.7 0.2
v -0.2 0.9 0.2
v -0.2 1 0.2
v -0.2 1.1 0.2
v -0.1 0.1 0.2
v -0.1 0.3 0.2
v -0.1 0.5 0.2
v -0.1 0.7 0.2
v -0.1 0.9 0.2
v -0.1 1.1 0.2
v -0.1 1.2 0.2
v 0 0.1 0.2
v 0 0.2 0.2
v 0.1 0.2 0.2
v 0.1 0.5 0.2
v 0.1 0.7 0.2
v 0.1 0.9 0.2
v 0.2 0.2 0.2
v 0.2 0.3 0.2
v 0.2 0.7 0.2
v 0.2 0.9 0.2
v 0.3 0 0.2
v 0.3 0.3 0.2
v 0.3 0.5 0.2
v 0.3 0.6 0.2
v 0.3 1 0.2
v 0.3 1.1 0.2
v 0.3 1.2 0.2
v -0.2 1.2 0.1
v -0.2 1.3 0.1
v -0.1 1.2 0.1
v -0.1 1.3 0.1
v 0.2 1.2 0.1
v 0.2 1.3 0.1
v -0.1 1.1 -0.4
v -0.1 1.2 -0.4
v 0.1 1.1 -0.4
v 0.1 1.2 -0.4
v -0.3 0 -0.2
v -0.3 0.3 -0.2
v -0.3 0.5 -0.2
v -0.3 1.1 -0.2
v -0.3 1.2 -0.2
v -0.2 1.2 -0.2
v 0.2 1.2 -0.2
v 0.3 0 -0.2
v 0.3 0.3 -0.2
v 0.3 0.5 -0.2
v 0.3 1.1 -0.2
v 0.3 1.2 -0.2
v -0.4 0.5 -0.3
v -0.4 1.1 -0.3
v -0.2 1.2 -0.3
v -0.2 1.3 -0.3
v -0.1 1.2 -0.3
v -0.1 1.3 -0.3
v 0.1 1.2 -0.3
v 0.1 1.3 -0.3
v 0.2 1.2 -0.3
v 0.2 1.3 -0.3
v 0.3 0.5 -0.3
v 0.3 0.6 -0.3
v 0.4 0.5 -0.3
v 0.4 0.6 -0.3
v 0.4 1.1 -0.3
v -0.1 1.2 -0.4
v -0.1 1.3 -0.4
v 0.1 1.2 -0.4
v 0.1 1.3 -0.4
v -0.1 1.1 -0.5
v -0.1 1.2 -0.5
v 0.1 1.1 -0.5
v 0.1 1.2 -0.5
v -0.3 0 0.2
v 0.3 0 0.2
v -0.2 0 0.1
v 0.2 0 0.1
v -0.2 0 -0.1
v 0.2 0 -0.1
v -0.3 0 -0.2
v 0.3 0 -0.2
v -0.4 0.5 0.3
v 0.3 0.5 0.3
v 0.4 0.5 0.3
v -0.3 0.5 0.2
v -0.1 0.5 0.2
v 0.1 0.5 0.2
v 0.3 0.5 0.2
v -0.3 0.5 -0.2
v 0.3 0.5 -0.2
v -0.4 0.5 -0.3
v 0.3 0.5 -0.3
v 0.4 0.5 -0.3
v -0.3 1 0.3
v -0.2 1 0.3
v 0.3 1 0.3
v -0.3 1 0.2
v -0.2 1 0.2
v 0.3 1 0.2
v -0.1 1.1 -0.4
v 0.1 1.1 -0.4
v -0.1 1.1 -0.5
v 0.1 1.1 -0.5
v -0.2 1.2 -0.2
v 0.2 1.2 -0.2
v -0.2 1.2 -0.3
v -0.1 1.2 -0.3
v 0.1 1.2 -0.3
v 0.2 1.2 -0.3
v -0.1 1.2 -0.4
v 0.1 1.2 -0.4
v -0.3 0.6 0.3
v 0.3 0.6 0.3
v -0.3 0.6 0.2
v 0.3 0.6 0.2
v -0.4 1.1 0.3
v -0.2 1.1 0.3
v 0.4 1.1 0.3
v -0.3 1.1 0.2
v -0.2 1.1 0.2
v -0.1 1.1 0.2
v 0.3 1.1 0.2
v -0.4 1.1 0.1
v -0.3 1.1 0.1
v -0.3 1.1 -2.98023e-008
v -0.3 1.1 -0.2
v 0.3 1.1 -0.2
v -0.4 1.1 -0.3
v 0.4 1.1 -0.3
v -0.3 1.2 0.2
v -0.1 1.2 0.2
v 0.3 1.2 0.2
v -0.2 1.2 0.1
v -0.1 1.2 0.1
v 0.2 1.2 0.1
v -0.3 1.2 -2.98023e-008
v -0.2 1.2 -2.98023e-008
v -0.3 1.2 -0.2
v -0.2 1.2 -0.2
v 0.2 1.2 -0.2
v 0.3 1.2 -0.2
v -0.1 1.2 -0.4
v 0.1 1.2 -0.4
v -0.1 1.2 -0.5
v 0.1 1.2 -0.5
v -0.2 1.3 0.1
v -0.1 1.3 0.1
v 0.2 1.3 0.1
v -0.2 1.3 -2.98023e-008
v -0.1 1.3 -2.98023e-008
v -0.2 1.3 -0.3
v -0.1 1.3 -0.3
v 0.1 1.3 -0.3
v 0.2 1.3 -0.3
v -0.1 1.3 -0.4
v 0.1 1.3 -0.4

# faces
f 3/2/1 2/2/1 1/2/1
f 4/2/1 2/2/1 3/2/1
f 5/1/1 4/1/1 3/1/1
f 6/2/1 2/2/1 4/2/1
f 6/1/1 4/1/1 5/1/1
f 7/2/1 2/2/1 6/2/1
f 10/3/1 9/3/1 8/3/1
f 11/3/1 9/3/1 10/3/1
f 12/2/1 11/2/1 10/2/1
f 13/2/1 11/2/1 12/2/1
f 18/1/1 15/1/1 14/1/1
f 18/1/1 16/1/1 15/1/1
f 19/2/1 17/2/1 16/2/1
f 19/1/1 16/1/1 18/1/1
f 20/2/1 17/2/1 19/2/1
f 25/1/1 22/1/1 21/1/1
f 26/2/1 24/2/1 23/2/1
f 26/1/1 22/1/1 25/1/1
f 26/2/1 23/2/1 22/2/1
f 27/2/1 24/2/1 26/2/1
f 31/2/1 29/2/1 28/2/1
f 32/2/1 29/2/1 31/2/1
f 33/2/1 31/2/1 30/2/1
f 34/2/1 31/2/1 33/2/1
f 37/2/1 36/2/1 35/2/1
f 38/2/1 36/2/1 37/2/1
f 39/2/2 40/2/2 41/2/2
f 41/2/2 40/2/2 42/2/2
f 43/2/2 44/2/2 46/2/2
f 46/2/2 44/2/2 47/2/2
f 45/2/2 46/2/2 48/2/2
f 48/2/2 46/2/2 49/2/2
f 50/2/2 51/2/2 53/2/2
f 51/2/2 52/2/2 53/2/2
f 53/2/2 52/2/2 54/2/2
f 55/3/2 56/3/2 57/3/2
f 57/3/2 56/3/2 58/3/2
f 57/2/2 58/2/2 59/2/2
f 59/2/2 58/2/2 60/2/2
f 61/2/2 62/2/2 63/2/2
f 63/2/2 62/2/2 64/2/2
f 65/3/2 66/3/2 67/3/2
f 67/3/2 66/3/2 68/3/2
f 67/2/2 68/2/2 69/2/2
f 69/2/2 68/2/2 70/2/2
f 74/2/3 72/2/3 71/2/3
f 75/1/3 73/1/3 72/1/3
f 75/2/3 72/2/3 74/2/3
f 76/1/3 73/1/3 75/1/3
f 77/1/3 73/1/3 76/1/3
f 78/2/3 74/2/3 71/2/3
f 79/2/3 74/2/3 78/2/3
f 80/2/3 77/2/3 76/2/3
f 81/3/3 79/3/3 78/3/3
f 82/2/3 80/2/3 79/2/3
f 82/3/3 79/3/3 81/3/3
f 83/2/3 77/2/3 80/2/3
f 83/2/3 80/2/3 82/2/3
f 91/7/3 88/7/3 87/7/3
f 92/7/3 88/7/3 91/7/3
f 93/7/3 88/7/3 92/7/3
f 94/1/3 90/1/3 89/1/3
f 95/3/3 85/3/3 84/3/3
f 96/2/3 86/2/3 85/2/3
f 96/3/3 85/3/3 95/3/3
f 97/2/3 86/2/3 96/2/3
f 98/7/3 91/7/3 87/7/3
f 98/5/3 92/5/3 91/5/3
f 99/7/3 93/7/3 92/7/3
f 99/5/3 92/5/3 98/5/3
f 100/1/3 90/1/3 94/1/3
f 101/1/3 90/1/3 100/1/3
f 102/3/3 95/3/3 84/3/3
f 102/1/3 97/1/3 96/1/3
f 102/1/3 96/1/3 95/1/3
f 103/1/3 97/1/3 102/1/3
f 104/3/3 103/3/3 102/3/3
f 104/1/3 97/1/3 103/1/3
f 105/1/3 97/1/3 104/1/3
f 106/7/3 98/7/3 87/7/3
f 106/7/3 99/7/3 98/7/3
f 107/7/3 93/7/3 99/7/3
f 107/7/3 99/7/3 106/7/3
f 108/2/3 105/2/3 104/2/3
f 108/3/3 104/3/3 102/3/3
f 109/2/3 105/2/3 108/2/3
f 110/7/3 106/7/3 87/7/3
f 110/5/3 107/5/3 106/5/3
f 111/7/3 93/7/3 107/7/3
f 111/5/3 107/5/3 110/5/3
f 112/3/3 109/3/3 108/3/3
f 112/3/3 102/3/3 84/3/3
f 112/3/3 108/3/3 102/3/3
f 113/2/3 105/2/3 109/2/3
f 113/3/3 109/3/3 112/3/3
f 114/2/3 105/2/3 113/2/3
f 115/7/3 110/7/3 87/7/3
f 115/7/3 111/7/3 110/7/3
f 116/7/3 93/7/3 111/7/3
f 116/7/3 111/7/3 115/7/3
f 117/2/3 101/2/3 100/2/3
f 118/2/3 101/2/3 117/2/3
f 121/1/3 120/1/3 119/1/3
f 122/1/3 120/1/3 121/1/3
f 123/2/3 122/2/3 121/2/3
f 124/2/3 122/2/3 123/2/3
f 127/2/3 126/2/3 125/2/3
f 128/2/3 126/2/3 127/2/3
f 132/2/4 133/2/4 134/2/4
f 132/2/4 134/2/4 135/2/4
f 129/3/4 130/3/4 136/3/4
f 130/2/4 131/2/4 137/2/4
f 136/3/4 130/3/4 137/3/4
f 137/2/4 131/2/4 138/2/4
f 132/2/4 135/2/4 139/2/4
f 139/2/4 135/2/4 140/2/4
f 143/2/4 144/2/4 145/2/4
f 145/2/4 144/2/4 146/2/4
f 147/2/4 148/2/4 149/2/4
f 149/2/4 148/2/4 150/2/4
f 141/2/4 142/2/4 151/2/4
f 151/2/4 142/2/4 152/2/4
f 151/3/4 152/3/4 153/3/4
f 152/2/4 142/2/4 154/2/4
f 153/3/4 152/3/4 154/3/4
f 154/2/4 142/2/4 155/2/4
f 156/2/4 157/2/4 158/2/4
f 158/2/4 157/2/4 159/2/4
f 160/2/4 161/2/4 162/2/4
f 162/2/4 161/2/4 163/2/4
f 166/3/5 165/3/5 164/3/5
f 167/3/5 165/3/5 166/3/5
f 168/3/5 166/3/5 164/3/5
f 168/2/5 167/2/5 166/2/5
f 169/3/5 165/3/5 167/3/5
f 169/2/5 167/2/5 168/2/5
f 170/3/5 168/3/5 164/3/5
f 170/3/5 169/3/5 168/3/5
f 171/3/5 165/3/5 169/3/5
f 171/3/5 169/3/5 170/3/5
f 175/2/5 173/2/5 172/2/5
f 176/2/5 173/2/5 175/2/5
f 177/2/5 173/2/5 176/2/5
f 178/3/5 174/3/5 173/3/5
f 178/2/5 173/2/5 177/2/5
f 179/2/5 175/2/5 172/2/5
f 180/3/5 174/3/5 178/3/5
f 181/2/5 179/2/5 172/2/5
f 181/2/5 180/2/5 179/2/5
f 182/3/5 174/3/5 180/3/5
f 182/2/5 180/2/5 181/2/5
f 183/3/5 174/3/5 182/3/5
f 187/1/5 185/1/5 184/1/5
f 188/2/5 186/2/5 185/2/5
f 188/1/5 185/1/5 187/1/5
f 189/2/5 186/2/5 188/2/5
f 192/2/5 191/2/5 190/2/5
f 193/2/5 191/2/5 192/2/5
f 196/2/5 195/2/5 194/2/5
f 197/2/5 195/2/5 196/2/5
f 198/2/5 195/2/5 197/2/5
f 199/2/5 195/2/5 198/2/5
f 200/2/5 198/2/5 197/2/5
f 201/2/5 198/2/5 200/2/5
f 202/2/6 203/2/6 204/2/6
f 204/2/6 203/2/6 205/2/6
f 206/1/6 207/1/6 209/1/6
f 207/2/6 208/2/6 210/2/6
f 209/1/6 207/1/6 210/1/6
f 210/2/6 208/2/6 211/2/6
f 211/2/6 208/2/6 212/2/6
f 206/1/6 209/1/6 213/1/6
f 213/1/6 209/1/6 214/1/6
f 213/2/6 214/2/6 215/2/6
f 213/2/6 215/2/6 216/2/6
f 212/2/6 208/2/6 217/2/6
f 213/2/6 216/2/6 218/2/6
f 216/2/6 217/2/6 218/2/6
f 217/2/6 208/2/6 219/2/6
f 218/2/6 217/2/6 219/2/6
f 220/1/6 221/1/6 223/1/6
f 221/2/6 222/2/6 224/2/6
f 223/1/6 221/1/6 224/1/6
f 224/2/6 222/2/6 225/2/6
f 220/1/6 223/1/6 226/1/6
f 226/1/6 223/1/6 227/1/6
f 226/2/6 227/2/6 228/2/6
f 228/2/6 227/2/6 229/2/6
f 225/2/6 222/2/6 230/2/6
f 230/2/6 222/2/6 231/2/6
f 232/2/6 233/2/6 234/2/6
f 234/2/6 233/2/6 235/2/6
f 236/1/6 237/1/6 239/1/6
f 237/2/6 238/2/6 240/2/6
f 239/1/6 237/1/6 240/1/6
f 239/2/6 240/2/6 241/2/6
f 240/2/6 238/2/6 242/2/6
f 241/2/6 240/2/6 242/2/6
f 242/2/6 238/2/6 243/2/6
f 243/2/6 238/2/6 244/2/6
f 242/2/6 243/2/6 245/2/6
f 245/2/6 243/2/6 246/2/6
