# MagicaVoxel @ Ephtracy

# group
o 

# material
mtllib Wiz_Ded_Normal.mtl
usemtl palette

# normals
vn -1 0 0
vn 1 0 0
vn 0 0 1
vn 0 0 -1
vn 0 -1 0
vn 0 1 0

# texcoords
vt 0.876953 0.5
vt 0.900391 0.5
vt 0.931641 0.5
vt 0.962891 0.5
vt 0.970703 0.5
vt 0.994141 0.5

# verts
v -0.4 0.5 0.3
v -0.4 0.5 -0.3
v -0.4 1 0.3
v -0.4 1 0.1
v -0.4 1.1 0.3
v -0.4 1.1 0.1
v -0.4 1.1 -0.3
v -0.3 0 0.2
v -0.3 0 -0.2
v -0.3 0.3 0.2
v -0.3 0.3 -0.2
v -0.3 0.5 0.2
v -0.3 0.5 -0.2
v -0.3 1.1 0.2
v -0.3 1.1 0.1
v -0.3 1.1 -2.98023e-008
v -0.3 1.1 -0.2
v -0.3 1.2 0.2
v -0.3 1.2 -2.98023e-008
v -0.3 1.2 -0.2
v -0.2 1.2 0.1
v -0.2 1.2 -2.98023e-008
v -0.2 1.2 -0.2
v -0.2 1.2 -0.3
v -0.2 1.3 0.1
v -0.2 1.3 -2.98023e-008
v -0.2 1.3 -0.3
v -0.1 1.1 -0.4
v -0.1 1.1 -0.5
v -0.1 1.2 -0.3
v -0.1 1.2 -0.4
v -0.1 1.2 -0.5
v -0.1 1.3 -0.3
v -0.1 1.3 -0.4
v 0.3 0.6 0.3
v 0.3 0.6 0.2
v 0.3 1 0.3
v 0.3 1 0.2
v -0.3 0.6 0.3
v -0.3 0.6 0.2
v -0.3 1 0.3
v -0.3 1 0.2
v 0.1 1.1 -0.4
v 0.1 1.1 -0.5
v 0.1 1.2 -0.3
v 0.1 1.2 -0.4
v 0.1 1.2 -0.5
v 0.1 1.3 -0.3
v 0.1 1.3 -0.4
v 0.2 1.2 0.1
v 0.2 1.2 -0.2
v 0.2 1.2 -0.3
v 0.2 1.3 0.1
v 0.2 1.3 -0.3
v 0.3 0 0.2
v 0.3 0 -0.2
v 0.3 0.3 0.2
v 0.3 0.3 -0.2
v 0.3 0.5 0.2
v 0.3 0.5 -0.2
v 0.3 1.1 0.2
v 0.3 1.1 -0.2
v 0.3 1.2 0.2
v 0.3 1.2 -0.2
v 0.4 0.5 0.3
v 0.4 0.5 -0.3
v 0.4 0.6 0.3
v 0.4 0.6 -0.3
v 0.4 1.1 0.3
v 0.4 1.1 -0.3
v -0.4 0.5 0.3
v -0.4 1 0.3
v -0.4 1.1 0.3
v -0.3 0.6 0.3
v -0.3 1 0.3
v -0.2 1 0.3
v -0.2 1.1 0.3
v 0.3 0.5 0.3
v 0.3 0.6 0.3
v 0.3 1 0.3
v 0.4 0.5 0.3
v 0.4 0.6 0.3
v 0.4 1.1 0.3
v -0.3 0 0.2
v -0.3 0.3 0.2
v -0.3 0.5 0.2
v -0.3 0.6 0.2
v -0.3 1 0.2
v -0.3 1.1 0.2
v -0.3 1.2 0.2
v -0.2 0.7 0.2
v -0.2 0.9 0.2
v -0.2 1 0.2
v -0.2 1.1 0.2
v -0.1 0.1 0.2
v -0.1 0.3 0.2
v -0.1 0.5 0.2
v -0.1 0.7 0.2
v -0.1 0.9 0.2
v -0.1 1.1 0.2
v -0.1 1.2 0.2
v 0 0.1 0.2
v 0 0.2 0.2
v 0.1 0.2 0.2
v 0.1 0.5 0.2
v 0.1 0.7 0.2
v 0.1 0.9 0.2
v 0.2 0.2 0.2
v 0.2 0.3 0.2
v 0.2 0.7 0.2
v 0.2 0.9 0.2
v 0.3 0 0.2
v 0.3 0.3 0.2
v 0.3 0.5 0.2
v 0.3 0.6 0.2
v 0.3 1 0.2
v 0.3 1.1 0.2
v 0.3 1.2 0.2
v -0.2 1.2 0.1
v -0.2 1.3 0.1
v -0.1 1.2 0.1
v -0.1 1.3 0.1
v 0.2 1.2 0.1
v 0.2 1.3 0.1
v -0.1 1.1 -0.4
v -0.1 1.2 -0.4
v 0.1 1.1 -0.4
v 0.1 1.2 -0.4
v -0.3 0 -0.2
v -0.3 0.3 -0.2
v -0.3 0.5 -0.2
v -0.3 1.1 -0.2
v -0.3 1.2 -0.2
v -0.2 1.2 -0.2
v 0.2 1.2 -0.2
v 0.3 0 -0.2
v 0.3 0.3 -0.2
v 0.3 0.5 -0.2
v 0.3 1.1 -0.2
v 0.3 1.2 -0.2
v -0.4 0.5 -0.3
v -0.4 1.1 -0.3
v -0.2 1.2 -0.3
v -0.2 1.3 -0.3
v -0.1 1.2 -0.3
v -0.1 1.3 -0.3
v 0.1 1.2 -0.3
v 0.1 1.3 -0.3
v 0.2 1.2 -0.3
v 0.2 1.3 -0.3
v 0.3 0.5 -0.3
v 0.3 0.6 -0.3
v 0.4 0.5 -0.3
v 0.4 0.6 -0.3
v 0.4 1.1 -0.3
v -0.1 1.2 -0.4
v -0.1 1.3 -0.4
v 0.1 1.2 -0.4
v 0.1 1.3 -0.4
v -0.1 1.1 -0.5
v -0.1 1.2 -0.5
v 0.1 1.1 -0.5
v 0.1 1.2 -0.5
v -0.3 0 0.2
v 0.3 0 0.2
v -0.2 0 0.1
v 0.2 0 0.1
v -0.2 0 -0.1
v 0.2 0 -0.1
v -0.3 0 -0.2
v 0.3 0 -0.2
v -0.4 0.5 0.3
v 0.3 0.5 0.3
v 0.4 0.5 0.3
v -0.3 0.5 0.2
v -0.1 0.5 0.2
v 0.1 0.5 0.2
v 0.3 0.5 0.2
v -0.3 0.5 -0.2
v 0.3 0.5 -0.2
v -0.4 0.5 -0.3
v 0.3 0.5 -0.3
v 0.4 0.5 -0.3
v -0.3 1 0.3
v -0.2 1 0.3
v 0.3 1 0.3
v -0.3 1 0.2
v -0.2 1 0.2
v 0.3 1 0.2
v -0.1 1.1 -0.4
v 0.1 1.1 -0.4
v -0.1 1.1 -0.5
v 0.1 1.1 -0.5
v -0.2 1.2 -0.2
v 0.2 1.2 -0.2
v -0.2 1.2 -0.3
v -0.1 1.2 -0.3
v 0.1 1.2 -0.3
v 0.2 1.2 -0.3
v -0.1 1.2 -0.4
v 0.1 1.2 -0.4
v -0.3 0.6 0.3
v 0.3 0.6 0.3
v -0.3 0.6 0.2
v 0.3 0.6 0.2
v -0.4 1.1 0.3
v -0.2 1.1 0.3
v 0.4 1.1 0.3
v -0.3 1.1 0.2
v -0.2 1.1 0.2
v -0.1 1.1 0.2
v 0.3 1.1 0.2
v -0.4 1.1 0.1
v -0.3 1.1 0.1
v -0.3 1.1 -2.98023e-008
v -0.3 1.1 -0.2
v 0.3 1.1 -0.2
v -0.4 1.1 -0.3
v 0.4 1.1 -0.3
v -0.3 1.2 0.2
v -0.1 1.2 0.2
v 0.3 1.2 0.2
v -0.2 1.2 0.1
v -0.1 1.2 0.1
v 0.2 1.2 0.1
v -0.3 1.2 -2.98023e-008
v -0.2 1.2 -2.98023e-008
v -0.3 1.2 -0.2
v -0.2 1.2 -0.2
v 0.2 1.2 -0.2
v 0.3 1.2 -0.2
v -0.1 1.2 -0.4
v 0.1 1.2 -0.4
v -0.1 1.2 -0.5
v 0.1 1.2 -0.5
v -0.2 1.3 0.1
v -0.1 1.3 0.1
v 0.2 1.3 0.1
v -0.2 1.3 -2.98023e-008
v -0.1 1.3 -2.98023e-008
v -0.2 1.3 -0.3
v -0.1 1.3 -0.3
v 0.1 1.3 -0.3
v 0.2 1.3 -0.3
v -0.1 1.3 -0.4
v 0.1 1.3 -0.4

# faces
f 3/4/1 2/4/1 1/4/1
f 4/4/1 2/4/1 3/4/1
f 5/3/1 4/3/1 3/3/1
f 6/4/1 2/4/1 4/4/1
f 6/3/1 4/3/1 5/3/1
f 7/4/1 2/4/1 6/4/1
f 10/2/1 9/2/1 8/2/1
f 11/2/1 9/2/1 10/2/1
f 12/4/1 11/4/1 10/4/1
f 13/4/1 11/4/1 12/4/1
f 18/3/1 15/3/1 14/3/1
f 18/3/1 16/3/1 15/3/1
f 19/4/1 17/4/1 16/4/1
f 19/3/1 16/3/1 18/3/1
f 20/4/1 17/4/1 19/4/1
f 25/3/1 22/3/1 21/3/1
f 26/4/1 24/4/1 23/4/1
f 26/3/1 22/3/1 25/3/1
f 26/4/1 23/4/1 22/4/1
f 27/4/1 24/4/1 26/4/1
f 31/4/1 29/4/1 28/4/1
f 32/4/1 29/4/1 31/4/1
f 33/4/1 31/4/1 30/4/1
f 34/4/1 31/4/1 33/4/1
f 37/4/1 36/4/1 35/4/1
f 38/4/1 36/4/1 37/4/1
f 39/4/2 40/4/2 41/4/2
f 41/4/2 40/4/2 42/4/2
f 43/4/2 44/4/2 46/4/2
f 46/4/2 44/4/2 47/4/2
f 45/4/2 46/4/2 48/4/2
f 48/4/2 46/4/2 49/4/2
f 50/4/2 51/4/2 53/4/2
f 51/4/2 52/4/2 53/4/2
f 53/4/2 52/4/2 54/4/2
f 55/2/2 56/2/2 57/2/2
f 57/2/2 56/2/2 58/2/2
f 57/4/2 58/4/2 59/4/2
f 59/4/2 58/4/2 60/4/2
f 61/4/2 62/4/2 63/4/2
f 63/4/2 62/4/2 64/4/2
f 65/2/2 66/2/2 67/2/2
f 67/2/2 66/2/2 68/2/2
f 67/4/2 68/4/2 69/4/2
f 69/4/2 68/4/2 70/4/2
f 74/4/3 72/4/3 71/4/3
f 75/3/3 73/3/3 72/3/3
f 75/4/3 72/4/3 74/4/3
f 76/3/3 73/3/3 75/3/3
f 77/3/3 73/3/3 76/3/3
f 78/4/3 74/4/3 71/4/3
f 79/4/3 74/4/3 78/4/3
f 80/4/3 77/4/3 76/4/3
f 81/2/3 79/2/3 78/2/3
f 82/4/3 80/4/3 79/4/3
f 82/2/3 79/2/3 81/2/3
f 83/4/3 77/4/3 80/4/3
f 83/4/3 80/4/3 82/4/3
f 91/6/3 88/6/3 87/6/3
f 92/6/3 88/6/3 91/6/3
f 93/6/3 88/6/3 92/6/3
f 94/3/3 90/3/3 89/3/3
f 95/2/3 85/2/3 84/2/3
f 96/4/3 86/4/3 85/4/3
f 96/2/3 85/2/3 95/2/3
f 97/4/3 86/4/3 96/4/3
f 98/6/3 91/6/3 87/6/3
f 98/4/3 92/4/3 91/4/3
f 99/6/3 93/6/3 92/6/3
f 99/4/3 92/4/3 98/4/3
f 100/3/3 90/3/3 94/3/3
f 101/3/3 90/3/3 100/3/3
f 102/2/3 95/2/3 84/2/3
f 102/3/3 97/3/3 96/3/3
f 102/3/3 96/3/3 95/3/3
f 103/3/3 97/3/3 102/3/3
f 104/2/3 103/2/3 102/2/3
f 104/3/3 97/3/3 103/3/3
f 105/3/3 97/3/3 104/3/3
f 106/6/3 98/6/3 87/6/3
f 106/6/3 99/6/3 98/6/3
f 107/6/3 93/6/3 99/6/3
f 107/6/3 99/6/3 106/6/3
f 108/4/3 105/4/3 104/4/3
f 108/2/3 104/2/3 102/2/3
f 109/4/3 105/4/3 108/4/3
f 110/6/3 106/6/3 87/6/3
f 110/4/3 107/4/3 106/4/3
f 111/6/3 93/6/3 107/6/3
f 111/4/3 107/4/3 110/4/3
f 112/2/3 109/2/3 108/2/3
f 112/2/3 102/2/3 84/2/3
f 112/2/3 108/2/3 102/2/3
f 113/4/3 105/4/3 109/4/3
f 113/2/3 109/2/3 112/2/3
f 114/4/3 105/4/3 113/4/3
f 115/6/3 110/6/3 87/6/3
f 115/6/3 111/6/3 110/6/3
f 116/6/3 93/6/3 111/6/3
f 116/6/3 111/6/3 115/6/3
f 117/4/3 101/4/3 100/4/3
f 118/4/3 101/4/3 117/4/3
f 121/3/3 120/3/3 119/3/3
f 122/3/3 120/3/3 121/3/3
f 123/4/3 122/4/3 121/4/3
f 124/4/3 122/4/3 123/4/3
f 127/4/3 126/4/3 125/4/3
f 128/4/3 126/4/3 127/4/3
f 132/4/4 133/4/4 134/4/4
f 132/4/4 134/4/4 135/4/4
f 129/2/4 130/2/4 136/2/4
f 130/4/4 131/4/4 137/4/4
f 136/2/4 130/2/4 137/2/4
f 137/4/4 131/4/4 138/4/4
f 132/4/4 135/4/4 139/4/4
f 139/4/4 135/4/4 140/4/4
f 143/4/4 144/4/4 145/4/4
f 145/4/4 144/4/4 146/4/4
f 147/4/4 148/4/4 149/4/4
f 149/4/4 148/4/4 150/4/4
f 141/4/4 142/4/4 151/4/4
f 151/4/4 142/4/4 152/4/4
f 151/2/4 152/2/4 153/2/4
f 152/4/4 142/4/4 154/4/4
f 153/2/4 152/2/4 154/2/4
f 154/4/4 142/4/4 155/4/4
f 156/4/4 157/4/4 158/4/4
f 158/4/4 157/4/4 159/4/4
f 160/4/4 161/4/4 162/4/4
f 162/4/4 161/4/4 163/4/4
f 166/2/5 165/2/5 164/2/5
f 167/2/5 165/2/5 166/2/5
f 168/2/5 166/2/5 164/2/5
f 168/4/5 167/4/5 166/4/5
f 169/2/5 165/2/5 167/2/5
f 169/4/5 167/4/5 168/4/5
f 170/2/5 168/2/5 164/2/5
f 170/2/5 169/2/5 168/2/5
f 171/2/5 165/2/5 169/2/5
f 171/2/5 169/2/5 170/2/5
f 175/4/5 173/4/5 172/4/5
f 176/4/5 173/4/5 175/4/5
f 177/4/5 173/4/5 176/4/5
f 178/2/5 174/2/5 173/2/5
f 178/4/5 173/4/5 177/4/5
f 179/4/5 175/4/5 172/4/5
f 180/2/5 174/2/5 178/2/5
f 181/4/5 179/4/5 172/4/5
f 181/4/5 180/4/5 179/4/5
f 182/2/5 174/2/5 180/2/5
f 182/4/5 180/4/5 181/4/5
f 183/2/5 174/2/5 182/2/5
f 187/3/5 185/3/5 184/3/5
f 188/4/5 186/4/5 185/4/5
f 188/3/5 185/3/5 187/3/5
f 189/4/5 186/4/5 188/4/5
f 192/4/5 191/4/5 190/4/5
f 193/4/5 191/4/5 192/4/5
f 196/4/5 195/4/5 194/4/5
f 197/4/5 195/4/5 196/4/5
f 198/4/5 195/4/5 197/4/5
f 199/4/5 195/4/5 198/4/5
f 200/4/5 198/4/5 197/4/5
f 201/4/5 198/4/5 200/4/5
f 202/4/6 203/4/6 204/4/6
f 204/4/6 203/4/6 205/4/6
f 206/3/6 207/3/6 209/3/6
f 207/4/6 208/4/6 210/4/6
f 209/3/6 207/3/6 210/3/6
f 210/4/6 208/4/6 211/4/6
f 211/4/6 208/4/6 212/4/6
f 206/3/6 209/3/6 213/3/6
f 213/3/6 209/3/6 214/3/6
f 213/4/6 214/4/6 215/4/6
f 213/4/6 215/4/6 216/4/6
f 212/4/6 208/4/6 217/4/6
f 213/4/6 216/4/6 218/4/6
f 216/4/6 217/4/6 218/4/6
f 217/4/6 208/4/6 219/4/6
f 218/4/6 217/4/6 219/4/6
f 220/3/6 221/3/6 223/3/6
f 221/4/6 222/4/6 224/4/6
f 223/3/6 221/3/6 224/3/6
f 224/4/6 222/4/6 225/4/6
f 220/3/6 223/3/6 226/3/6
f 226/3/6 223/3/6 227/3/6
f 226/4/6 227/4/6 228/4/6
f 228/4/6 227/4/6 229/4/6
f 225/4/6 222/4/6 230/4/6
f 230/4/6 222/4/6 231/4/6
f 232/4/6 233/4/6 234/4/6
f 234/4/6 233/4/6 235/4/6
f 236/3/6 237/3/6 239/3/6
f 237/4/6 238/4/6 240/4/6
f 239/3/6 237/3/6 240/3/6
f 239/4/6 240/4/6 241/4/6
f 240/4/6 238/4/6 242/4/6
f 241/4/6 240/4/6 242/4/6
f 242/4/6 238/4/6 243/4/6
f 243/4/6 238/4/6 244/4/6
f 242/4/6 243/4/6 245/4/6
f 245/4/6 243/4/6 246/4/6
