# MagicaVoxel @ Ephtracy

# group
o 

# material
mtllib Wiz_1_Exp_Normal.mtl
usemtl palette

# normals
vn -1 0 0
vn 1 0 0
vn 0 0 1
vn 0 0 -1
vn 0 -1 0
vn 0 1 0

# texcoords
vt 0.939453 0.5
vt 0.962891 0.5
vt 0.970703 0.5
vt 0.974609 0.5
vt 0.994141 0.5

# verts
v -0.4 0.5 0.3
v -0.4 0.5 -0.3
v -0.4 1 0.3
v -0.4 1 0.1
v -0.4 1.1 0.3
v -0.4 1.1 0.1
v -0.4 1.1 -0.3
v -0.3 0 0.2
v -0.3 0 -0.2
v -0.3 0.3 0.2
v -0.3 0.3 -0.2
v -0.3 0.5 0.2
v -0.3 0.5 -0.2
v -0.3 1.1 0.2
v -0.3 1.1 0.1
v -0.3 1.1 -2.98023e-008
v -0.3 1.1 -0.2
v -0.3 1.2 0.2
v -0.3 1.2 -2.98023e-008
v -0.3 1.2 -0.2
v -0.2 1.2 0.1
v -0.2 1.2 -2.98023e-008
v -0.2 1.2 -0.2
v -0.2 1.2 -0.3
v -0.2 1.3 0.1
v -0.2 1.3 -2.98023e-008
v -0.2 1.3 -0.3
v -0.1 1.1 -0.4
v -0.1 1.1 -0.5
v -0.1 1.2 -0.3
v -0.1 1.2 -0.4
v -0.1 1.2 -0.5
v -0.1 1.3 -0.3
v -0.1 1.3 -0.4
v 0.3 0.6 0.3
v 0.3 0.6 0.2
v 0.3 1 0.3
v 0.3 1 0.2
v -0.3 0.6 0.3
v -0.3 0.6 0.2
v -0.3 1 0.3
v -0.3 1 0.2
v 0.1 1.1 -0.4
v 0.1 1.1 -0.5
v 0.1 1.2 -0.3
v 0.1 1.2 -0.4
v 0.1 1.2 -0.5
v 0.1 1.3 -0.3
v 0.1 1.3 -0.4
v 0.2 1.2 0.1
v 0.2 1.2 -0.2
v 0.2 1.2 -0.3
v 0.2 1.3 0.1
v 0.2 1.3 -0.3
v 0.3 0 0.2
v 0.3 0 -0.2
v 0.3 0.3 0.2
v 0.3 0.3 -0.2
v 0.3 0.5 0.2
v 0.3 0.5 -0.2
v 0.3 1.1 0.2
v 0.3 1.1 -0.2
v 0.3 1.2 0.2
v 0.3 1.2 -0.2
v 0.4 0.5 0.3
v 0.4 0.5 -0.3
v 0.4 0.6 0.3
v 0.4 0.6 -0.3
v 0.4 1.1 0.3
v 0.4 1.1 -0.3
v -0.4 0.5 0.3
v -0.4 1 0.3
v -0.4 1.1 0.3
v -0.3 0.6 0.3
v -0.3 1 0.3
v -0.2 1 0.3
v -0.2 1.1 0.3
v 0.3 0.5 0.3
v 0.3 0.6 0.3
v 0.3 1 0.3
v 0.4 0.5 0.3
v 0.4 0.6 0.3
v 0.4 1.1 0.3
v -0.3 0 0.2
v -0.3 0.3 0.2
v -0.3 0.5 0.2
v -0.3 0.6 0.2
v -0.3 1 0.2
v -0.3 1.1 0.2
v -0.3 1.2 0.2
v -0.2 0.2 0.2
v -0.2 0.3 0.2
v -0.2 0.7 0.2
v -0.2 0.9 0.2
v -0.2 1 0.2
v -0.2 1.1 0.2
v -0.1 0.1 0.2
v -0.1 0.2 0.2
v -0.1 0.5 0.2
v -0.1 0.7 0.2
v -0.1 0.9 0.2
v -0.1 1.1 0.2
v -0.1 1.2 0.2
v 0 0.1 0.2
v 0 0.2 0.2
v 0.1 0.2 0.2
v 0.1 0.5 0.2
v 0.1 0.7 0.2
v 0.1 0.9 0.2
v 0.2 0.2 0.2
v 0.2 0.3 0.2
v 0.2 0.7 0.2
v 0.2 0.9 0.2
v 0.3 0 0.2
v 0.3 0.3 0.2
v 0.3 0.5 0.2
v 0.3 0.6 0.2
v 0.3 1 0.2
v 0.3 1.1 0.2
v 0.3 1.2 0.2
v -0.2 1.2 0.1
v -0.2 1.3 0.1
v -0.1 1.2 0.1
v -0.1 1.3 0.1
v 0.2 1.2 0.1
v 0.2 1.3 0.1
v -0.1 1.1 -0.4
v -0.1 1.2 -0.4
v 0.1 1.1 -0.4
v 0.1 1.2 -0.4
v -0.3 0 -0.2
v -0.3 0.3 -0.2
v -0.3 0.5 -0.2
v -0.3 1.1 -0.2
v -0.3 1.2 -0.2
v -0.2 1.2 -0.2
v 0.2 1.2 -0.2
v 0.3 0 -0.2
v 0.3 0.3 -0.2
v 0.3 0.5 -0.2
v 0.3 1.1 -0.2
v 0.3 1.2 -0.2
v -0.4 0.5 -0.3
v -0.4 1.1 -0.3
v -0.2 1.2 -0.3
v -0.2 1.3 -0.3
v -0.1 1.2 -0.3
v -0.1 1.3 -0.3
v 0.1 1.2 -0.3
v 0.1 1.3 -0.3
v 0.2 1.2 -0.3
v 0.2 1.3 -0.3
v 0.3 0.5 -0.3
v 0.3 0.6 -0.3
v 0.4 0.5 -0.3
v 0.4 0.6 -0.3
v 0.4 1.1 -0.3
v -0.1 1.2 -0.4
v -0.1 1.3 -0.4
v 0.1 1.2 -0.4
v 0.1 1.3 -0.4
v -0.1 1.1 -0.5
v -0.1 1.2 -0.5
v 0.1 1.1 -0.5
v 0.1 1.2 -0.5
v -0.3 0 0.2
v 0.3 0 0.2
v -0.2 0 0.1
v 0.2 0 0.1
v -0.2 0 -0.1
v 0.2 0 -0.1
v -0.3 0 -0.2
v 0.3 0 -0.2
v -0.4 0.5 0.3
v 0.3 0.5 0.3
v 0.4 0.5 0.3
v -0.3 0.5 0.2
v -0.1 0.5 0.2
v 0.1 0.5 0.2
v 0.3 0.5 0.2
v -0.3 0.5 -0.2
v 0.3 0.5 -0.2
v -0.4 0.5 -0.3
v 0.3 0.5 -0.3
v 0.4 0.5 -0.3
v -0.3 1 0.3
v -0.2 1 0.3
v 0.3 1 0.3
v -0.3 1 0.2
v -0.2 1 0.2
v 0.3 1 0.2
v -0.1 1.1 -0.4
v 0.1 1.1 -0.4
v -0.1 1.1 -0.5
v 0.1 1.1 -0.5
v -0.2 1.2 -0.2
v 0.2 1.2 -0.2
v -0.2 1.2 -0.3
v -0.1 1.2 -0.3
v 0.1 1.2 -0.3
v 0.2 1.2 -0.3
v -0.1 1.2 -0.4
v 0.1 1.2 -0.4
v -0.3 0.6 0.3
v 0.3 0.6 0.3
v -0.3 0.6 0.2
v 0.3 0.6 0.2
v -0.4 1.1 0.3
v -0.2 1.1 0.3
v 0.4 1.1 0.3
v -0.3 1.1 0.2
v -0.2 1.1 0.2
v -0.1 1.1 0.2
v 0.3 1.1 0.2
v -0.4 1.1 0.1
v -0.3 1.1 0.1
v -0.3 1.1 -2.98023e-008
v -0.3 1.1 -0.2
v 0.3 1.1 -0.2
v -0.4 1.1 -0.3
v 0.4 1.1 -0.3
v -0.3 1.2 0.2
v -0.1 1.2 0.2
v 0.3 1.2 0.2
v -0.2 1.2 0.1
v -0.1 1.2 0.1
v 0.2 1.2 0.1
v -0.3 1.2 -2.98023e-008
v -0.2 1.2 -2.98023e-008
v -0.3 1.2 -0.2
v -0.2 1.2 -0.2
v 0.2 1.2 -0.2
v 0.3 1.2 -0.2
v -0.1 1.2 -0.4
v 0.1 1.2 -0.4
v -0.1 1.2 -0.5
v 0.1 1.2 -0.5
v -0.2 1.3 0.1
v -0.1 1.3 0.1
v 0.2 1.3 0.1
v -0.2 1.3 -2.98023e-008
v -0.1 1.3 -2.98023e-008
v -0.2 1.3 -0.3
v -0.1 1.3 -0.3
v 0.1 1.3 -0.3
v 0.2 1.3 -0.3
v -0.1 1.3 -0.4
v 0.1 1.3 -0.4

# faces
f 3/3/1 2/3/1 1/3/1
f 4/3/1 2/3/1 3/3/1
f 5/4/1 4/4/1 3/4/1
f 6/3/1 2/3/1 4/3/1
f 6/4/1 4/4/1 5/4/1
f 7/3/1 2/3/1 6/3/1
f 10/1/1 9/1/1 8/1/1
f 11/1/1 9/1/1 10/1/1
f 12/3/1 11/3/1 10/3/1
f 13/3/1 11/3/1 12/3/1
f 18/4/1 15/4/1 14/4/1
f 18/4/1 16/4/1 15/4/1
f 19/3/1 17/3/1 16/3/1
f 19/4/1 16/4/1 18/4/1
f 20/3/1 17/3/1 19/3/1
f 25/4/1 22/4/1 21/4/1
f 26/3/1 24/3/1 23/3/1
f 26/4/1 22/4/1 25/4/1
f 26/3/1 23/3/1 22/3/1
f 27/3/1 24/3/1 26/3/1
f 31/3/1 29/3/1 28/3/1
f 32/3/1 29/3/1 31/3/1
f 33/3/1 31/3/1 30/3/1
f 34/3/1 31/3/1 33/3/1
f 37/3/1 36/3/1 35/3/1
f 38/3/1 36/3/1 37/3/1
f 39/3/2 40/3/2 41/3/2
f 41/3/2 40/3/2 42/3/2
f 43/3/2 44/3/2 46/3/2
f 46/3/2 44/3/2 47/3/2
f 45/3/2 46/3/2 48/3/2
f 48/3/2 46/3/2 49/3/2
f 50/3/2 51/3/2 53/3/2
f 51/3/2 52/3/2 53/3/2
f 53/3/2 52/3/2 54/3/2
f 55/1/2 56/1/2 57/1/2
f 57/1/2 56/1/2 58/1/2
f 57/3/2 58/3/2 59/3/2
f 59/3/2 58/3/2 60/3/2
f 61/3/2 62/3/2 63/3/2
f 63/3/2 62/3/2 64/3/2
f 65/1/2 66/1/2 67/1/2
f 67/1/2 66/1/2 68/1/2
f 67/3/2 68/3/2 69/3/2
f 69/3/2 68/3/2 70/3/2
f 74/3/3 72/3/3 71/3/3
f 75/4/3 73/4/3 72/4/3
f 75/3/3 72/3/3 74/3/3
f 76/4/3 73/4/3 75/4/3
f 77/4/3 73/4/3 76/4/3
f 78/3/3 74/3/3 71/3/3
f 79/3/3 74/3/3 78/3/3
f 80/3/3 77/3/3 76/3/3
f 81/1/3 79/1/3 78/1/3
f 82/3/3 80/3/3 79/3/3
f 82/1/3 79/1/3 81/1/3
f 83/3/3 77/3/3 80/3/3
f 83/3/3 80/3/3 82/3/3
f 91/1/3 85/1/3 84/1/3
f 92/3/3 86/3/3 85/3/3
f 92/1/3 85/1/3 91/1/3
f 93/5/3 88/5/3 87/5/3
f 94/5/3 88/5/3 93/5/3
f 95/5/3 88/5/3 94/5/3
f 96/4/3 90/4/3 89/4/3
f 97/1/3 91/1/3 84/1/3
f 98/3/3 92/3/3 91/3/3
f 98/1/3 91/1/3 97/1/3
f 99/3/3 86/3/3 92/3/3
f 99/3/3 92/3/3 98/3/3
f 100/5/3 93/5/3 87/5/3
f 100/2/3 94/2/3 93/2/3
f 101/5/3 95/5/3 94/5/3
f 101/2/3 94/2/3 100/2/3
f 102/4/3 90/4/3 96/4/3
f 103/4/3 90/4/3 102/4/3
f 104/4/3 98/4/3 97/4/3
f 104/1/3 97/1/3 84/1/3
f 104/4/3 99/4/3 98/4/3
f 105/4/3 99/4/3 104/4/3
f 106/1/3 105/1/3 104/1/3
f 106/4/3 99/4/3 105/4/3
f 107/4/3 99/4/3 106/4/3
f 108/5/3 100/5/3 87/5/3
f 108/5/3 101/5/3 100/5/3
f 109/5/3 95/5/3 101/5/3
f 109/5/3 101/5/3 108/5/3
f 110/3/3 107/3/3 106/3/3
f 110/1/3 106/1/3 104/1/3
f 111/3/3 107/3/3 110/3/3
f 112/5/3 108/5/3 87/5/3
f 112/2/3 109/2/3 108/2/3
f 113/5/3 95/5/3 109/5/3
f 113/2/3 109/2/3 112/2/3
f 114/1/3 111/1/3 110/1/3
f 114/1/3 104/1/3 84/1/3
f 114/1/3 110/1/3 104/1/3
f 115/3/3 107/3/3 111/3/3
f 115/1/3 111/1/3 114/1/3
f 116/3/3 107/3/3 115/3/3
f 117/5/3 112/5/3 87/5/3
f 117/5/3 113/5/3 112/5/3
f 118/5/3 95/5/3 113/5/3
f 118/5/3 113/5/3 117/5/3
f 119/3/3 103/3/3 102/3/3
f 120/3/3 103/3/3 119/3/3
f 123/4/3 122/4/3 121/4/3
f 124/4/3 122/4/3 123/4/3
f 125/3/3 124/3/3 123/3/3
f 126/3/3 124/3/3 125/3/3
f 129/3/3 128/3/3 127/3/3
f 130/3/3 128/3/3 129/3/3
f 134/3/4 135/3/4 136/3/4
f 134/3/4 136/3/4 137/3/4
f 131/1/4 132/1/4 138/1/4
f 132/3/4 133/3/4 139/3/4
f 138/1/4 132/1/4 139/1/4
f 139/3/4 133/3/4 140/3/4
f 134/3/4 137/3/4 141/3/4
f 141/3/4 137/3/4 142/3/4
f 145/3/4 146/3/4 147/3/4
f 147/3/4 146/3/4 148/3/4
f 149/3/4 150/3/4 151/3/4
f 151/3/4 150/3/4 152/3/4
f 143/3/4 144/3/4 153/3/4
f 153/3/4 144/3/4 154/3/4
f 153/1/4 154/1/4 155/1/4
f 154/3/4 144/3/4 156/3/4
f 155/1/4 154/1/4 156/1/4
f 156/3/4 144/3/4 157/3/4
f 158/3/4 159/3/4 160/3/4
f 160/3/4 159/3/4 161/3/4
f 162/3/4 163/3/4 164/3/4
f 164/3/4 163/3/4 165/3/4
f 168/1/5 167/1/5 166/1/5
f 169/1/5 167/1/5 168/1/5
f 170/1/5 168/1/5 166/1/5
f 170/3/5 169/3/5 168/3/5
f 171/1/5 167/1/5 169/1/5
f 171/3/5 169/3/5 170/3/5
f 172/1/5 170/1/5 166/1/5
f 172/1/5 171/1/5 170/1/5
f 173/1/5 167/1/5 171/1/5
f 173/1/5 171/1/5 172/1/5
f 177/3/5 175/3/5 174/3/5
f 178/3/5 175/3/5 177/3/5
f 179/3/5 175/3/5 178/3/5
f 180/1/5 176/1/5 175/1/5
f 180/3/5 175/3/5 179/3/5
f 181/3/5 177/3/5 174/3/5
f 182/1/5 176/1/5 180/1/5
f 183/3/5 181/3/5 174/3/5
f 183/3/5 182/3/5 181/3/5
f 184/1/5 176/1/5 182/1/5
f 184/3/5 182/3/5 183/3/5
f 185/1/5 176/1/5 184/1/5
f 189/4/5 187/4/5 186/4/5
f 190/3/5 188/3/5 187/3/5
f 190/4/5 187/4/5 189/4/5
f 191/3/5 188/3/5 190/3/5
f 194/3/5 193/3/5 192/3/5
f 195/3/5 193/3/5 194/3/5
f 198/3/5 197/3/5 196/3/5
f 199/3/5 197/3/5 198/3/5
f 200/3/5 197/3/5 199/3/5
f 201/3/5 197/3/5 200/3/5
f 202/3/5 200/3/5 199/3/5
f 203/3/5 200/3/5 202/3/5
f 204/3/6 205/3/6 206/3/6
f 206/3/6 205/3/6 207/3/6
f 208/4/6 209/4/6 211/4/6
f 209/3/6 210/3/6 212/3/6
f 211/4/6 209/4/6 212/4/6
f 212/3/6 210/3/6 213/3/6
f 213/3/6 210/3/6 214/3/6
f 208/4/6 211/4/6 215/4/6
f 215/4/6 211/4/6 216/4/6
f 215/3/6 216/3/6 217/3/6
f 215/3/6 217/3/6 218/3/6
f 214/3/6 210/3/6 219/3/6
f 215/3/6 218/3/6 220/3/6
f 218/3/6 219/3/6 220/3/6
f 219/3/6 210/3/6 221/3/6
f 220/3/6 219/3/6 221/3/6
f 222/4/6 223/4/6 225/4/6
f 223/3/6 224/3/6 226/3/6
f 225/4/6 223/4/6 226/4/6
f 226/3/6 224/3/6 227/3/6
f 222/4/6 225/4/6 228/4/6
f 228/4/6 225/4/6 229/4/6
f 228/3/6 229/3/6 230/3/6
f 230/3/6 229/3/6 231/3/6
f 227/3/6 224/3/6 232/3/6
f 232/3/6 224/3/6 233/3/6
f 234/3/6 235/3/6 236/3/6
f 236/3/6 235/3/6 237/3/6
f 238/4/6 239/4/6 241/4/6
f 239/3/6 240/3/6 242/3/6
f 241/4/6 239/4/6 242/4/6
f 241/3/6 242/3/6 243/3/6
f 242/3/6 240/3/6 244/3/6
f 243/3/6 242/3/6 244/3/6
f 244/3/6 240/3/6 245/3/6
f 245/3/6 240/3/6 246/3/6
f 244/3/6 245/3/6 247/3/6
f 247/3/6 245/3/6 248/3/6
