# MagicaVoxel @ Ephtracy

# group
o 

# material
mtllib Wiz_2_Exp_Normal.mtl
usemtl palette

# normals
vn -1 0 0
vn 1 0 0
vn 0 0 1
vn 0 0 -1
vn 0 -1 0
vn 0 1 0

# texcoords
vt 0.845703 0.5
vt 0.849609 0.5
vt 0.853516 0.5
vt 0.962891 0.5
vt 0.970703 0.5
vt 0.994141 0.5

# verts
v -0.4 0.5 0.3
v -0.4 0.5 -0.3
v -0.4 1 0.3
v -0.4 1 0.1
v -0.4 1.1 0.3
v -0.4 1.1 0.1
v -0.4 1.1 -0.3
v -0.3 0 0.2
v -0.3 0 -0.2
v -0.3 0.3 0.2
v -0.3 0.3 -0.2
v -0.3 0.5 0.2
v -0.3 0.5 -0.2
v -0.3 1.1 0.2
v -0.3 1.1 0.1
v -0.3 1.1 -2.98023e-008
v -0.3 1.1 -0.2
v -0.3 1.2 0.2
v -0.3 1.2 -2.98023e-008
v -0.3 1.2 -0.2
v -0.2 1.2 0.1
v -0.2 1.2 -2.98023e-008
v -0.2 1.2 -0.2
v -0.2 1.2 -0.3
v -0.2 1.3 0.1
v -0.2 1.3 -2.98023e-008
v -0.2 1.3 -0.3
v -0.1 1.1 -0.4
v -0.1 1.1 -0.5
v -0.1 1.2 -0.3
v -0.1 1.2 -0.4
v -0.1 1.2 -0.5
v -0.1 1.3 -0.3
v -0.1 1.3 -0.4
v 0.3 0.6 0.3
v 0.3 0.6 0.2
v 0.3 1 0.3
v 0.3 1 0.2
v -0.3 0.6 0.3
v -0.3 0.6 0.2
v -0.3 1 0.3
v -0.3 1 0.2
v 0.1 1.1 -0.4
v 0.1 1.1 -0.5
v 0.1 1.2 -0.3
v 0.1 1.2 -0.4
v 0.1 1.2 -0.5
v 0.1 1.3 -0.3
v 0.1 1.3 -0.4
v 0.2 1.2 0.1
v 0.2 1.2 -0.2
v 0.2 1.2 -0.3
v 0.2 1.3 0.1
v 0.2 1.3 -0.3
v 0.3 0 0.2
v 0.3 0 -0.2
v 0.3 0.3 0.2
v 0.3 0.3 -0.2
v 0.3 0.5 0.2
v 0.3 0.5 -0.2
v 0.3 1.1 0.2
v 0.3 1.1 -0.2
v 0.3 1.2 0.2
v 0.3 1.2 -0.2
v 0.4 0.5 0.3
v 0.4 0.5 -0.3
v 0.4 0.6 0.3
v 0.4 0.6 -0.3
v 0.4 1.1 0.3
v 0.4 1.1 -0.3
v -0.4 0.5 0.3
v -0.4 1 0.3
v -0.4 1.1 0.3
v -0.3 0.6 0.3
v -0.3 1 0.3
v -0.2 1 0.3
v -0.2 1.1 0.3
v 0.3 0.5 0.3
v 0.3 0.6 0.3
v 0.3 1 0.3
v 0.4 0.5 0.3
v 0.4 0.6 0.3
v 0.4 1.1 0.3
v -0.3 0 0.2
v -0.3 0.3 0.2
v -0.3 0.5 0.2
v -0.3 0.6 0.2
v -0.3 1 0.2
v -0.3 1.1 0.2
v -0.3 1.2 0.2
v -0.2 0.7 0.2
v -0.2 0.9 0.2
v -0.2 1 0.2
v -0.2 1.1 0.2
v -0.1 0.1 0.2
v -0.1 0.3 0.2
v -0.1 0.5 0.2
v -0.1 0.7 0.2
v -0.1 0.9 0.2
v -0.1 1.1 0.2
v -0.1 1.2 0.2
v 0 0.1 0.2
v 0 0.2 0.2
v 0.1 0.2 0.2
v 0.1 0.5 0.2
v 0.1 0.7 0.2
v 0.1 0.9 0.2
v 0.2 0.2 0.2
v 0.2 0.3 0.2
v 0.2 0.7 0.2
v 0.2 0.9 0.2
v 0.3 0 0.2
v 0.3 0.3 0.2
v 0.3 0.5 0.2
v 0.3 0.6 0.2
v 0.3 1 0.2
v 0.3 1.1 0.2
v 0.3 1.2 0.2
v -0.2 1.2 0.1
v -0.2 1.3 0.1
v -0.1 1.2 0.1
v -0.1 1.3 0.1
v 0.2 1.2 0.1
v 0.2 1.3 0.1
v -0.1 1.1 -0.4
v -0.1 1.2 -0.4
v 0.1 1.1 -0.4
v 0.1 1.2 -0.4
v -0.3 0 -0.2
v -0.3 0.3 -0.2
v -0.3 0.5 -0.2
v -0.3 1.1 -0.2
v -0.3 1.2 -0.2
v -0.2 1.2 -0.2
v 0.2 1.2 -0.2
v 0.3 0 -0.2
v 0.3 0.3 -0.2
v 0.3 0.5 -0.2
v 0.3 1.1 -0.2
v 0.3 1.2 -0.2
v -0.4 0.5 -0.3
v -0.4 1.1 -0.3
v -0.2 1.2 -0.3
v -0.2 1.3 -0.3
v -0.1 1.2 -0.3
v -0.1 1.3 -0.3
v 0.1 1.2 -0.3
v 0.1 1.3 -0.3
v 0.2 1.2 -0.3
v 0.2 1.3 -0.3
v 0.3 0.5 -0.3
v 0.3 0.6 -0.3
v 0.4 0.5 -0.3
v 0.4 0.6 -0.3
v 0.4 1.1 -0.3
v -0.1 1.2 -0.4
v -0.1 1.3 -0.4
v 0.1 1.2 -0.4
v 0.1 1.3 -0.4
v -0.1 1.1 -0.5
v -0.1 1.2 -0.5
v 0.1 1.1 -0.5
v 0.1 1.2 -0.5
v -0.3 0 0.2
v 0.3 0 0.2
v -0.2 0 0.1
v 0.2 0 0.1
v -0.2 0 -0.1
v 0.2 0 -0.1
v -0.3 0 -0.2
v 0.3 0 -0.2
v -0.4 0.5 0.3
v 0.3 0.5 0.3
v 0.4 0.5 0.3
v -0.3 0.5 0.2
v -0.1 0.5 0.2
v 0.1 0.5 0.2
v 0.3 0.5 0.2
v -0.3 0.5 -0.2
v 0.3 0.5 -0.2
v -0.4 0.5 -0.3
v 0.3 0.5 -0.3
v 0.4 0.5 -0.3
v -0.3 1 0.3
v -0.2 1 0.3
v 0.3 1 0.3
v -0.3 1 0.2
v -0.2 1 0.2
v 0.3 1 0.2
v -0.1 1.1 -0.4
v 0.1 1.1 -0.4
v -0.1 1.1 -0.5
v 0.1 1.1 -0.5
v -0.2 1.2 -0.2
v 0.2 1.2 -0.2
v -0.2 1.2 -0.3
v -0.1 1.2 -0.3
v 0.1 1.2 -0.3
v 0.2 1.2 -0.3
v -0.1 1.2 -0.4
v 0.1 1.2 -0.4
v -0.3 0.6 0.3
v 0.3 0.6 0.3
v -0.3 0.6 0.2
v 0.3 0.6 0.2
v -0.4 1.1 0.3
v -0.2 1.1 0.3
v 0.4 1.1 0.3
v -0.3 1.1 0.2
v -0.2 1.1 0.2
v -0.1 1.1 0.2
v 0.3 1.1 0.2
v -0.4 1.1 0.1
v -0.3 1.1 0.1
v -0.3 1.1 -2.98023e-008
v -0.3 1.1 -0.2
v 0.3 1.1 -0.2
v -0.4 1.1 -0.3
v 0.4 1.1 -0.3
v -0.3 1.2 0.2
v -0.1 1.2 0.2
v 0.3 1.2 0.2
v -0.2 1.2 0.1
v -0.1 1.2 0.1
v 0.2 1.2 0.1
v -0.3 1.2 -2.98023e-008
v -0.2 1.2 -2.98023e-008
v -0.3 1.2 -0.2
v -0.2 1.2 -0.2
v 0.2 1.2 -0.2
v 0.3 1.2 -0.2
v -0.1 1.2 -0.4
v 0.1 1.2 -0.4
v -0.1 1.2 -0.5
v 0.1 1.2 -0.5
v -0.2 1.3 0.1
v -0.1 1.3 0.1
v 0.2 1.3 0.1
v -0.2 1.3 -2.98023e-008
v -0.1 1.3 -2.98023e-008
v -0.2 1.3 -0.3
v -0.1 1.3 -0.3
v 0.1 1.3 -0.3
v 0.2 1.3 -0.3
v -0.1 1.3 -0.4
v 0.1 1.3 -0.4

# faces
f 3/1/1 2/1/1 1/1/1
f 4/1/1 2/1/1 3/1/1
f 5/3/1 4/3/1 3/3/1
f 6/1/1 2/1/1 4/1/1
f 6/3/1 4/3/1 5/3/1
f 7/1/1 2/1/1 6/1/1
f 10/2/1 9/2/1 8/2/1
f 11/2/1 9/2/1 10/2/1
f 12/1/1 11/1/1 10/1/1
f 13/1/1 11/1/1 12/1/1
f 18/3/1 15/3/1 14/3/1
f 18/3/1 16/3/1 15/3/1
f 19/1/1 17/1/1 16/1/1
f 19/3/1 16/3/1 18/3/1
f 20/1/1 17/1/1 19/1/1
f 25/3/1 22/3/1 21/3/1
f 26/1/1 24/1/1 23/1/1
f 26/3/1 22/3/1 25/3/1
f 26/1/1 23/1/1 22/1/1
f 27/1/1 24/1/1 26/1/1
f 31/1/1 29/1/1 28/1/1
f 32/1/1 29/1/1 31/1/1
f 33/1/1 31/1/1 30/1/1
f 34/1/1 31/1/1 33/1/1
f 37/1/1 36/1/1 35/1/1
f 38/1/1 36/1/1 37/1/1
f 39/1/2 40/1/2 41/1/2
f 41/1/2 40/1/2 42/1/2
f 43/1/2 44/1/2 46/1/2
f 46/1/2 44/1/2 47/1/2
f 45/1/2 46/1/2 48/1/2
f 48/1/2 46/1/2 49/1/2
f 50/1/2 51/1/2 53/1/2
f 51/1/2 52/1/2 53/1/2
f 53/1/2 52/1/2 54/1/2
f 55/2/2 56/2/2 57/2/2
f 57/2/2 56/2/2 58/2/2
f 57/1/2 58/1/2 59/1/2
f 59/1/2 58/1/2 60/1/2
f 61/1/2 62/1/2 63/1/2
f 63/1/2 62/1/2 64/1/2
f 65/2/2 66/2/2 67/2/2
f 67/2/2 66/2/2 68/2/2
f 67/1/2 68/1/2 69/1/2
f 69/1/2 68/1/2 70/1/2
f 74/1/3 72/1/3 71/1/3
f 75/3/3 73/3/3 72/3/3
f 75/1/3 72/1/3 74/1/3
f 76/3/3 73/3/3 75/3/3
f 77/3/3 73/3/3 76/3/3
f 78/1/3 74/1/3 71/1/3
f 79/1/3 74/1/3 78/1/3
f 80/1/3 77/1/3 76/1/3
f 81/2/3 79/2/3 78/2/3
f 82/1/3 80/1/3 79/1/3
f 82/2/3 79/2/3 81/2/3
f 83/1/3 77/1/3 80/1/3
f 83/1/3 80/1/3 82/1/3
f 91/6/3 88/6/3 87/6/3
f 92/6/3 88/6/3 91/6/3
f 93/6/3 88/6/3 92/6/3
f 94/3/3 90/3/3 89/3/3
f 95/2/3 85/2/3 84/2/3
f 96/1/3 86/1/3 85/1/3
f 96/2/3 85/2/3 95/2/3
f 97/1/3 86/1/3 96/1/3
f 98/6/3 91/6/3 87/6/3
f 98/4/3 92/4/3 91/4/3
f 99/6/3 93/6/3 92/6/3
f 99/4/3 92/4/3 98/4/3
f 100/3/3 90/3/3 94/3/3
f 101/3/3 90/3/3 100/3/3
f 102/2/3 95/2/3 84/2/3
f 102/3/3 97/3/3 96/3/3
f 102/3/3 96/3/3 95/3/3
f 103/3/3 97/3/3 102/3/3
f 104/2/3 103/2/3 102/2/3
f 104/3/3 97/3/3 103/3/3
f 105/3/3 97/3/3 104/3/3
f 106/6/3 98/6/3 87/6/3
f 106/6/3 99/6/3 98/6/3
f 107/6/3 93/6/3 99/6/3
f 107/6/3 99/6/3 106/6/3
f 108/1/3 105/1/3 104/1/3
f 108/2/3 104/2/3 102/2/3
f 109/1/3 105/1/3 108/1/3
f 110/6/3 106/6/3 87/6/3
f 110/4/3 107/4/3 106/4/3
f 111/6/3 93/6/3 107/6/3
f 111/4/3 107/4/3 110/4/3
f 112/2/3 109/2/3 108/2/3
f 112/2/3 102/2/3 84/2/3
f 112/2/3 108/2/3 102/2/3
f 113/1/3 105/1/3 109/1/3
f 113/2/3 109/2/3 112/2/3
f 114/1/3 105/1/3 113/1/3
f 115/6/3 110/6/3 87/6/3
f 115/6/3 111/6/3 110/6/3
f 116/6/3 93/6/3 111/6/3
f 116/6/3 111/6/3 115/6/3
f 117/1/3 101/1/3 100/1/3
f 118/1/3 101/1/3 117/1/3
f 121/3/3 120/3/3 119/3/3
f 122/3/3 120/3/3 121/3/3
f 123/1/3 122/1/3 121/1/3
f 124/1/3 122/1/3 123/1/3
f 127/1/3 126/1/3 125/1/3
f 128/1/3 126/1/3 127/1/3
f 132/1/4 133/1/4 134/1/4
f 132/1/4 134/1/4 135/1/4
f 129/2/4 130/2/4 136/2/4
f 130/1/4 131/1/4 137/1/4
f 136/2/4 130/2/4 137/2/4
f 137/1/4 131/1/4 138/1/4
f 132/1/4 135/1/4 139/1/4
f 139/1/4 135/1/4 140/1/4
f 143/1/4 144/1/4 145/1/4
f 145/1/4 144/1/4 146/1/4
f 147/1/4 148/1/4 149/1/4
f 149/1/4 148/1/4 150/1/4
f 141/1/4 142/1/4 151/1/4
f 151/1/4 142/1/4 152/1/4
f 151/2/4 152/2/4 153/2/4
f 152/1/4 142/1/4 154/1/4
f 153/2/4 152/2/4 154/2/4
f 154/1/4 142/1/4 155/1/4
f 156/1/4 157/1/4 158/1/4
f 158/1/4 157/1/4 159/1/4
f 160/1/4 161/1/4 162/1/4
f 162/1/4 161/1/4 163/1/4
f 166/2/5 165/2/5 164/2/5
f 167/2/5 165/2/5 166/2/5
f 168/2/5 166/2/5 164/2/5
f 168/1/5 167/1/5 166/1/5
f 169/2/5 165/2/5 167/2/5
f 169/1/5 167/1/5 168/1/5
f 170/2/5 168/2/5 164/2/5
f 170/2/5 169/2/5 168/2/5
f 171/2/5 165/2/5 169/2/5
f 171/2/5 169/2/5 170/2/5
f 175/1/5 173/1/5 172/1/5
f 176/1/5 173/1/5 175/1/5
f 177/1/5 173/1/5 176/1/5
f 178/2/5 174/2/5 173/2/5
f 178/1/5 173/1/5 177/1/5
f 179/1/5 175/1/5 172/1/5
f 180/2/5 174/2/5 178/2/5
f 181/1/5 179/1/5 172/1/5
f 181/1/5 180/1/5 179/1/5
f 182/2/5 174/2/5 180/2/5
f 182/1/5 180/1/5 181/1/5
f 183/2/5 174/2/5 182/2/5
f 187/3/5 185/3/5 184/3/5
f 188/1/5 186/1/5 185/1/5
f 188/3/5 185/3/5 187/3/5
f 189/1/5 186/1/5 188/1/5
f 192/1/5 191/1/5 190/1/5
f 193/1/5 191/1/5 192/1/5
f 196/1/5 195/1/5 194/1/5
f 197/1/5 195/1/5 196/1/5
f 198/1/5 195/1/5 197/1/5
f 199/1/5 195/1/5 198/1/5
f 200/1/5 198/1/5 197/1/5
f 201/1/5 198/1/5 200/1/5
f 202/1/6 203/1/6 204/1/6
f 204/1/6 203/1/6 205/1/6
f 206/3/6 207/3/6 209/3/6
f 207/1/6 208/1/6 210/1/6
f 209/3/6 207/3/6 210/3/6
f 210/1/6 208/1/6 211/1/6
f 211/1/6 208/1/6 212/1/6
f 206/3/6 209/3/6 213/3/6
f 213/3/6 209/3/6 214/3/6
f 213/1/6 214/1/6 215/1/6
f 213/1/6 215/1/6 216/1/6
f 212/1/6 208/1/6 217/1/6
f 213/1/6 216/1/6 218/1/6
f 216/1/6 217/1/6 218/1/6
f 217/1/6 208/1/6 219/1/6
f 218/1/6 217/1/6 219/1/6
f 220/3/6 221/3/6 223/3/6
f 221/1/6 222/1/6 224/1/6
f 223/3/6 221/3/6 224/3/6
f 224/1/6 222/1/6 225/1/6
f 220/3/6 223/3/6 226/3/6
f 226/3/6 223/3/6 227/3/6
f 226/1/6 227/1/6 228/1/6
f 228/1/6 227/1/6 229/1/6
f 225/1/6 222/1/6 230/1/6
f 230/1/6 222/1/6 231/1/6
f 232/1/6 233/1/6 234/1/6
f 234/1/6 233/1/6 235/1/6
f 236/3/6 237/3/6 239/3/6
f 237/1/6 238/1/6 240/1/6
f 239/3/6 237/3/6 240/3/6
f 239/1/6 240/1/6 241/1/6
f 240/1/6 238/1/6 242/1/6
f 241/1/6 240/1/6 242/1/6
f 242/1/6 238/1/6 243/1/6
f 243/1/6 238/1/6 244/1/6
f 242/1/6 243/1/6 245/1/6
f 245/1/6 243/1/6 246/1/6
